<?xml version="1.0" encoding="UTF-8" standalone="no"?>
<!-- Created with Inkscape (http://www.inkscape.org/) -->

<svg
   xmlns:dc="http://purl.org/dc/elements/1.1/"
   xmlns:cc="http://creativecommons.org/ns#"
   xmlns:rdf="http://www.w3.org/1999/02/22-rdf-syntax-ns#"
   xmlns:svg="http://www.w3.org/2000/svg"
   xmlns="http://www.w3.org/2000/svg"
   xmlns:sodipodi="http://sodipodi.sourceforge.net/DTD/sodipodi-0.dtd"
   xmlns:inkscape="http://www.inkscape.org/namespaces/inkscape"
   width="156.50287mm"
   height="99.731552mm"
   viewBox="0 0 156.50287 99.731551"
   version="1.1"
   id="svg1086"
   inkscape:version="0.92.5 (2060ec1f9f, 2020-04-08)"
   sodipodi:docname="loading_screen.svg">
  <defs
     id="defs1080">
    <inkscape:path-effect
       effect="bspline"
       id="path-effect1709"
       is_visible="true"
       weight="33.333333"
       steps="2"
       helper_size="0"
       apply_no_weight="true"
       apply_with_weight="true"
       only_selected="false" />
    <inkscape:path-effect
       effect="bspline"
       id="path-effect1705"
       is_visible="true"
       weight="33.333333"
       steps="2"
       helper_size="0"
       apply_no_weight="true"
       apply_with_weight="true"
       only_selected="false" />
    <inkscape:path-effect
       effect="bspline"
       id="path-effect1701"
       is_visible="true"
       weight="33.333333"
       steps="2"
       helper_size="0"
       apply_no_weight="true"
       apply_with_weight="true"
       only_selected="false" />
    <inkscape:path-effect
       effect="bspline"
       id="path-effect1693"
       is_visible="true"
       weight="33.333333"
       steps="2"
       helper_size="0"
       apply_no_weight="true"
       apply_with_weight="true"
       only_selected="false" />
    <inkscape:path-effect
       effect="bspline"
       id="path-effect1689"
       is_visible="true"
       weight="33.333333"
       steps="2"
       helper_size="0"
       apply_no_weight="true"
       apply_with_weight="true"
       only_selected="false" />
    <inkscape:path-effect
       effect="bspline"
       id="path-effect1685"
       is_visible="true"
       weight="33.333333"
       steps="2"
       helper_size="0"
       apply_no_weight="true"
       apply_with_weight="true"
       only_selected="false" />
    <inkscape:path-effect
       effect="bspline"
       id="path-effect1681"
       is_visible="true"
       weight="33.333333"
       steps="2"
       helper_size="0"
       apply_no_weight="true"
       apply_with_weight="true"
       only_selected="false" />
    <inkscape:path-effect
       effect="bspline"
       id="path-effect1677"
       is_visible="true"
       weight="33.333333"
       steps="2"
       helper_size="0"
       apply_no_weight="true"
       apply_with_weight="true"
       only_selected="false" />
    <inkscape:path-effect
       effect="bspline"
       id="path-effect1673"
       is_visible="true"
       weight="33.333333"
       steps="2"
       helper_size="0"
       apply_no_weight="true"
       apply_with_weight="true"
       only_selected="false" />
    <inkscape:path-effect
       effect="bspline"
       id="path-effect1669"
       is_visible="true"
       weight="33.333333"
       steps="2"
       helper_size="0"
       apply_no_weight="true"
       apply_with_weight="true"
       only_selected="false" />
    <inkscape:path-effect
       effect="bspline"
       id="path-effect1647"
       is_visible="true"
       weight="33.333333"
       steps="2"
       helper_size="0"
       apply_no_weight="true"
       apply_with_weight="true"
       only_selected="false" />
    <inkscape:path-effect
       effect="bspline"
       id="path-effect1643"
       is_visible="true"
       weight="33.333333"
       steps="2"
       helper_size="0"
       apply_no_weight="true"
       apply_with_weight="true"
       only_selected="false" />
    <inkscape:path-effect
       effect="bspline"
       id="path-effect1639"
       is_visible="true"
       weight="33.333333"
       steps="2"
       helper_size="0"
       apply_no_weight="true"
       apply_with_weight="true"
       only_selected="false" />
    <inkscape:path-effect
       effect="bspline"
       id="path-effect1635"
       is_visible="true"
       weight="33.333333"
       steps="2"
       helper_size="0"
       apply_no_weight="true"
       apply_with_weight="true"
       only_selected="false" />
    <inkscape:path-effect
       effect="bspline"
       id="path-effect1643-7"
       is_visible="true"
       weight="33.333333"
       steps="2"
       helper_size="0"
       apply_no_weight="true"
       apply_with_weight="true"
       only_selected="false" />
  </defs>
  <sodipodi:namedview
     id="base"
     pagecolor="#ffffff"
     bordercolor="#666666"
     borderopacity="1.0"
     inkscape:pageopacity="0.0"
     inkscape:pageshadow="2"
     inkscape:zoom="7.9195959"
     inkscape:cx="387.05216"
     inkscape:cy="175.36181"
     inkscape:document-units="mm"
     inkscape:current-layer="layer1"
     showgrid="true"
     fit-margin-top="25"
     fit-margin-left="5"
     fit-margin-right="5"
     fit-margin-bottom="25"
     inkscape:window-width="1848"
     inkscape:window-height="1016"
     inkscape:window-x="1992"
     inkscape:window-y="27"
     inkscape:window-maximized="1">
    <inkscape:grid
       type="xygrid"
       id="grid1631"
       originx="-165.44484"
       originy="-445.61687" />
  </sodipodi:namedview>
  <metadata
     id="metadata1083">
    <rdf:RDF>
      <cc:Work
         rdf:about="">
        <dc:format>image/svg+xml</dc:format>
        <dc:type
           rdf:resource="http://purl.org/dc/dcmitype/StillImage" />
        <dc:title></dc:title>
      </cc:Work>
    </rdf:RDF>
  </metadata>
  <g
     inkscape:label="Layer 1"
     inkscape:groupmode="layer"
     id="layer1"
     transform="translate(-9.7016426,3.70266)">
    <path
       style="fill:none;stroke:#000000;stroke-width:0.26458332px;stroke-linecap:butt;stroke-linejoin:miter;stroke-opacity:1"
       d="m 22.9306,26.242898 c -2.645788,5.291509 -6.173565,17.638732 -7.496384,23.812501 -1.322818,6.173768 -0.440896,6.173768 2.64509,6.614626 3.085987,0.440858 8.379242,1.323067 11.907035,1.322988 3.527794,-8e-5 5.291754,-0.88206 5.73262,-2.204792 0.440866,-1.322732 -0.441238,-3.086939 -3.08678,-3.96883 -2.645542,-0.88189 -7.055528,-0.88189 -7.937478,-5.292035 -0.88195,-4.410146 1.763724,-13.22906 2.204681,-18.520538 0.440956,-5.291478 -1.322996,-7.05543 -3.968784,-1.76392 z"
       id="path1633"
       inkscape:connector-curvature="0"
       inkscape:path-effect="#path-effect1635"
       inkscape:original-d="m 23.8125,19.1875 c -3.527513,12.346957 -7.055291,24.69418 -10.583333,37.041667 0.882231,-2.64e-4 1.764153,-2.64e-4 2.645833,0 5.290343,0.881415 10.583598,1.763623 15.875,2.645834 1.764082,-0.882174 3.528041,-1.764155 5.291666,-2.645834 -0.88152,-1.763837 -1.763625,-3.528044 -2.645833,-5.291666 -4.409194,-2.65e-4 -8.81918,-2.65e-4 -13.229167,0 2.646257,-8.82024 5.291932,-17.639154 7.9375,-26.458335 C 27.340605,22.715076 25.576653,20.951124 23.8125,19.1875 Z" />
    <path
       style="fill:none;stroke:#000000;stroke-width:0.26458332px;stroke-linecap:butt;stroke-linejoin:miter;stroke-opacity:1"
       d="m 40.128684,43.881706 c 1.323023,-1.763809 3.086911,-2.645753 5.291454,-2.645727 2.204544,2.7e-5 4.850853,0.88213 6.17369,3.086726 1.322838,2.204596 1.322838,5.732585 0.44096,8.378485 -0.881878,2.6459 -2.645634,4.409656 -4.850694,5.291733 -2.20506,0.882078 -4.850497,0.882078 -6.599593,-0.396063 -1.749095,-1.278142 -2.660944,-4.013685 -2.66089,-6.659519 5.3e-5,-2.645834 0.882051,-5.291825 2.205073,-7.055635 z"
       id="path1637"
       inkscape:connector-curvature="0"
       inkscape:path-effect="#path-effect1639"
       inkscape:original-d="m 39.6875,43.000001 c 1.764154,-0.882211 3.528041,-1.764155 5.291666,-2.645834 2.645622,0.881521 5.291931,1.763623 7.9375,2.645834 2.65e-4,3.5273 2.65e-4,7.055289 0,10.583333 -1.763757,1.763755 -3.527512,3.527512 -5.291667,5.291667 -2.645965,-2.65e-4 -5.291402,-2.65e-4 -7.937499,0 -0.756399,-2.588181 -1.763626,-5.291932 -2.645834,-7.9375 0.882155,-2.645942 1.764155,-5.291932 2.645834,-7.9375 z" />
    <path
       style="fill:none;stroke:#000000;stroke-width:0.26458332px;stroke-linecap:butt;stroke-linejoin:miter;stroke-opacity:1"
       d="m 43.21541,46.968618 c 0.882077,-1.322784 2.645964,-1.322784 3.527777,-1.98e-4 0.881812,1.322586 0.881812,3.968816 -0.0621,5.291865 -0.943909,1.323049 -2.583603,1.323049 -3.46568,-1.99e-4 -0.882077,-1.323247 -0.882077,-3.968683 0,-5.291468 z"
       id="path1641"
       inkscape:connector-curvature="0"
       inkscape:path-effect="#path-effect1643"
       inkscape:original-d="m 42.333333,45.645834 c 1.764154,-2.65e-4 3.528041,-2.65e-4 5.291666,0 2.65e-4,2.645172 2.65e-4,5.291402 0,7.9375 -1.887818,0.06687 -3.527512,-2.65e-4 -5.291666,0 2.64e-4,-2.646495 2.64e-4,-5.291931 0,-7.9375 z" />
    <path
       style="fill:none;stroke:#000000;stroke-width:0.26458332px;stroke-linecap:butt;stroke-linejoin:miter;stroke-opacity:1"
       d="m 63.059319,40.795086 c -2.204836,0.44092 -4.850669,1.322864 -6.173744,3.968882 -1.323076,2.646018 -1.323076,7.055212 -0.441026,9.701231 0.882051,2.646019 2.645833,3.52791 4.409749,3.086831 1.763916,-0.441078 3.527911,-2.205072 4.850628,-2.645978 1.322718,-0.440907 2.204795,0.44117 3.527871,0.441091 1.323077,-8e-5 3.086963,-0.882023 3.086936,-3.527449 -2.7e-5,-2.645426 -1.764234,-7.055943 -3.527935,-9.260735 -1.763702,-2.204792 -3.527644,-2.204792 -5.732479,-1.763873 z"
       id="path1645"
       inkscape:connector-curvature="0"
       inkscape:path-effect="#path-effect1647"
       inkscape:original-d="m 63.499999,40.354167 c -2.645569,0.881679 -5.291402,1.763623 -7.9375,2.645834 2.65e-4,4.409985 2.65e-4,8.819179 0,13.229166 1.76426,0.881732 3.528042,1.763623 5.291667,2.645834 1.764048,-1.764049 3.528041,-3.528045 5.291666,-5.291667 0.882076,0.881547 1.764155,1.763622 2.645834,2.645833 1.764154,-0.882211 3.528041,-1.764154 5.291666,-2.645833 -1.763307,-4.409194 -3.527512,-8.819711 -5.291666,-13.229167 -1.76357,-2.64e-4 -3.527512,-2.64e-4 -5.291667,0 z" />
    <path
       transform="translate(17.638757,-1.3227852)"
       style="fill:none;stroke:#000000;stroke-width:0.26458332px;stroke-linecap:butt;stroke-linejoin:miter;stroke-opacity:1"
       d="m 43.21541,46.968618 c 0.882077,-1.322784 2.645964,-1.322784 3.527777,-1.98e-4 0.881812,1.322586 0.881812,3.968816 -0.0621,5.291865 -0.943909,1.323049 -2.583603,1.323049 -3.46568,-1.99e-4 -0.882077,-1.323247 -0.882077,-3.968683 0,-5.291468 z"
       id="path1641-9"
       inkscape:connector-curvature="0"
       inkscape:path-effect="#path-effect1643-7"
       inkscape:original-d="m 42.333333,45.645834 c 1.764154,-2.65e-4 3.528041,-2.65e-4 5.291666,0 2.65e-4,2.645172 2.65e-4,5.291402 0,7.9375 -1.887818,0.06687 -3.527512,-2.65e-4 -5.291666,0 2.64e-4,-2.646495 2.64e-4,-5.291931 0,-7.9375 z" />
    <path
       style="fill:none;stroke:#000000;stroke-width:0.26458332px;stroke-linecap:butt;stroke-linejoin:miter;stroke-opacity:1"
       d="m 82.020832,40.354167 c -2.645568,0 -5.291402,0 -6.614451,1.763932 -1.323049,1.763933 -1.323049,5.291358 -0.441039,7.93739 0.882011,2.646032 2.645767,4.409789 4.409816,4.850682 1.764049,0.440892 3.527936,-0.441051 5.29156,-0.441025 1.763625,2.6e-5 3.52783,0.882129 5.732595,-4.409375 2.204765,-5.291504 4.850757,-16.757469 4.850837,-22.930887 7.9e-5,-6.173419 -2.645826,-7.055387 -4.409802,-3.968543 -1.763977,3.086844 -2.645868,10.141978 -3.968707,13.669902 -1.322839,3.527924 -3.086654,3.527924 -4.850809,3.527924 0,0 0,0 0,0"
       id="path1667"
       inkscape:connector-curvature="0"
       inkscape:path-effect="#path-effect1669"
       inkscape:original-d="m 82.020832,40.354167 c -2.645568,-2.64e-4 -5.291402,-2.64e-4 -7.9375,0 2.65e-4,3.527865 2.65e-4,7.05529 0,10.583334 1.764287,1.763754 3.528042,3.527512 5.291667,5.291666 1.764154,-0.882211 3.528041,-1.764154 5.291667,-2.645833 1.763836,0.88152 3.528041,1.763622 5.291666,2.645833 2.645939,-11.464856 5.291931,-22.93082 7.9375,-34.395834 -2.645497,-0.882185 -5.291402,-1.764153 -7.9375,-2.645833 -0.881732,7.055714 -1.763625,14.110847 -2.645833,21.166667 -1.763697,-2.64e-4 -3.527512,-2.64e-4 -5.291667,0 0,0 2.65e-4,-2.64e-4 0,0" />
    <path
       style="fill:none;stroke:#000000;stroke-width:0.26458332px;stroke-linecap:butt;stroke-linejoin:miter;stroke-opacity:1"
       d="m 77.61127,46.086594 c 0.882104,-1.322864 2.64599,-2.204807 4.409615,-2.204781 1.763625,2.7e-5 3.52783,0.882129 3.968856,2.204807 0.441026,1.322678 -0.440972,3.086674 -2.205046,3.968777 -1.764074,0.882104 -4.409431,0.882104 -5.73248,-6.2e-5 -1.323049,-0.882166 -1.323049,-2.645878 -0.440945,-3.968741 z"
       id="path1671"
       inkscape:connector-curvature="0"
       inkscape:path-effect="#path-effect1673"
       inkscape:original-d="m 76.729166,45.645834 c 1.764154,-0.882211 3.528041,-1.764154 5.291666,-2.645833 1.763837,0.88152 3.528042,1.763622 5.291667,2.645833 -0.881626,1.763517 -1.763625,3.527512 -2.645833,5.291667 -2.646045,-2.65e-4 -5.291402,-2.65e-4 -7.9375,0 2.64e-4,-1.764332 2.64e-4,-3.528044 0,-5.291667 z" />
    <path
       style="fill:none;stroke:#000000;stroke-width:0.26458332px;stroke-linecap:butt;stroke-linejoin:miter;stroke-opacity:1"
       d="m 97.014179,42.558976 c -0.881972,0.441025 -2.6e-5,0.441025 1.3e-5,2.204229 3.8e-5,1.763203 -0.88217,5.292039 -0.882171,7.497095 0,2.205055 0.881866,3.086922 2.204942,3.086843 1.323077,-8e-5 3.086957,-0.882021 3.968747,-2.204834 0.88179,-1.322812 0.88179,-3.087019 0.44101,-3.968831 -0.44077,-0.881811 -1.32285,-0.881811 -1.32279,-2.205283 5e-5,-1.323471 0.88173,-3.968512 5e-5,-4.850404 -0.88168,-0.881892 -3.52783,1.59e-4 -4.409801,0.441185 z"
       id="path1675"
       inkscape:connector-curvature="0"
       inkscape:path-effect="#path-effect1677"
       inkscape:original-d="m 95.249999,43.000001 c 0.882208,-2.65e-4 1.764154,-2.65e-4 2.645833,0 -0.881414,3.526454 -1.763625,7.055289 -2.645833,10.583333 0.882287,0.881756 1.764154,1.763622 2.645833,2.645833 1.764154,-0.882211 3.528038,-1.764154 5.291668,-2.645833 2.6e-4,-1.763837 2.6e-4,-3.528044 0,-5.291667 -0.88155,-2.64e-4 -1.76363,-2.64e-4 -2.64583,0 0.88247,-2.646891 1.76415,-5.291931 2.64583,-7.9375 -2.64525,0.881574 -5.291403,1.763623 -7.937501,2.645834 z" />
    <path
       style="fill:none;stroke:#000000;stroke-width:0.26458332px;stroke-linecap:butt;stroke-linejoin:miter;stroke-opacity:1"
       d="m 108.47933,45.204708 c -0.88205,2.204708 -1.76399,6.614432 -1.32286,8.819445 0.44114,2.205014 2.2049,2.205014 3.08671,0.441256 0.88182,-1.763757 0.88182,-5.292063 1.76383,-7.055819 0.88201,-1.763756 2.64603,-1.763756 3.08698,-2.88e-4 0.44094,1.763468 -0.44114,5.291775 10e-6,7.05582 0.44114,1.764045 2.20487,1.764045 3.52762,-0.440638 1.32275,-2.204683 2.20483,-6.615067 1.32303,-9.26069 -0.88181,-2.645622 -3.52783,-3.527629 -5.25004,-3.569406 -1.72222,-0.04178 -2.6874,0.923402 -3.56948,1.364507 -0.88207,0.441106 -1.76376,0.441106 -2.6458,2.645813 z"
       id="path1679"
       inkscape:connector-curvature="0"
       inkscape:path-effect="#path-effect1681"
       inkscape:original-d="m 108.47917,43.000001 c -0.88168,4.409456 -1.76363,8.819179 -2.64584,13.229166 1.76428,-2.64e-4 3.52804,-2.64e-4 5.29167,0 2.6e-4,-3.527515 2.6e-4,-7.055821 0,-10.583333 1.76402,-2.65e-4 3.52804,-2.65e-4 5.29167,0 -0.88155,3.526983 -1.76363,7.055289 -2.64584,10.583333 1.76431,-2.64e-4 3.52804,-2.64e-4 5.29167,0 0.88207,-4.409326 1.76415,-8.81971 2.64583,-13.229166 -2.64538,-0.88215 -5.2914,-1.764155 -7.9375,-2.645834 -0.77293,0.823955 -1.76362,1.763623 -2.64583,2.645834 -0.88194,-2.65e-4 -1.76363,-2.65e-4 -2.64583,0 z" />
    <path
       style="fill:none;stroke:#000000;stroke-width:0.26458332px;stroke-linecap:butt;stroke-linejoin:miter;stroke-opacity:1"
       d="m 96.573048,39.47209 c 1.323049,0.882077 3.968882,0.882077 5.291672,8.8e-5 1.32278,-0.881988 1.32278,-2.646055 1.9e-4,-3.527866 -1.32258,-0.881811 -3.968813,-0.881811 -5.291862,8.9e-5 -1.323049,0.8819 -1.323049,2.645612 0,3.527689 z"
       id="path1683"
       inkscape:connector-curvature="0"
       inkscape:path-effect="#path-effect1685"
       inkscape:original-d="m 95.249999,40.354167 c 2.646098,-2.64e-4 5.291931,-2.64e-4 7.937501,0 2.6e-4,-1.763977 2.6e-4,-3.528044 0,-5.291666 -2.64517,-2.65e-4 -5.291403,-2.65e-4 -7.937501,0 2.64e-4,1.7638 2.64e-4,3.527512 0,5.291666 z" />
    <path
       style="fill:none;stroke:#000000;stroke-width:0.26458332px;stroke-linecap:butt;stroke-linejoin:miter;stroke-opacity:1"
       d="m 131.85088,42.117951 c -1.323,1.59e-4 -3.08689,-0.881787 -4.85072,-0.881866 -1.76384,-8e-5 -3.52762,0.88181 -4.40972,3.086937 -0.88211,2.205126 -0.88211,5.732268 -0.13365,7.870522 0.74847,2.138254 2.77942,3.153729 4.10234,2.712627 1.32292,-0.441103 2.20492,-2.2051 2.2089,-0.465425 0.004,1.739675 -0.88604,7.079787 -2.20889,9.72577 -1.32286,2.645984 -3.08665,2.645984 -4.40977,2.204945 -1.32312,-0.441038 -2.20493,-1.322849 -3.52769,-1.322928 -1.32276,-7.9e-5 -3.08664,0.881862 -2.64556,2.205039 0.44108,1.323177 3.08644,3.086746 5.73237,3.527655 2.64593,0.440909 5.29182,-0.441054 7.02631,-1.705433 1.73449,-1.264378 2.67508,-3.14556 3.99779,-7.554643 1.32272,-4.409082 3.08693,-11.465909 3.52788,-15.434483 0.44096,-3.968573 -0.44103,-4.850556 -1.32284,-4.850689 -0.88181,-1.33e-4 -1.76376,0.881813 -3.08675,0.881972 z"
       id="path1687"
       inkscape:connector-curvature="0"
       inkscape:path-effect="#path-effect1689"
       inkscape:original-d="M 132.29166,43.000001 C 130.52804,42.11779 128.76415,41.235846 127,40.354167 c -1.76373,0.881732 -3.52751,1.763623 -5.29167,2.645834 2.7e-4,3.528147 2.7e-4,7.055289 0,10.583333 1.48134,0.779642 3.52804,1.763622 5.29167,2.645833 0.88215,-1.764048 1.76415,-3.528044 2.64583,-5.291666 -0.98625,5.224182 -1.76362,10.583068 -2.64583,15.874999 -1.76372,-2.64e-4 -3.52751,-2.64e-4 -5.29167,0 -0.88181,-0.882343 -1.76362,-1.764154 -2.64583,-2.645833 -1.76363,0.881679 -3.52751,1.763623 -5.29167,2.645833 2.64658,1.76394 5.29193,3.527513 7.9375,5.291667 2.64604,-0.88219 5.29193,-1.764154 7.9375,-2.645833 0.61712,-1.750087 1.76416,-3.528044 2.64583,-5.291667 1.76384,-7.054551 3.52805,-14.111377 5.29167,-21.166666 -0.88164,-0.882171 -1.76362,-1.764155 -2.64583,-2.645834 -0.88168,0.881679 -1.76363,1.763623 -2.64584,2.645834 z" />
    <path
       style="fill:none;stroke:#000000;stroke-width:0.26458332px;stroke-linecap:butt;stroke-linejoin:miter;stroke-opacity:1"
       d="m 125.67722,47.850564 c -0.44095,-1.323101 0.441,-3.086993 1.76373,-3.527858 1.32273,-0.440864 3.08693,0.441237 3.52456,1.770707 0.43763,1.32947 -0.43758,3.07988 -1.76068,3.520958 -1.3231,0.441079 -3.08667,-0.440707 -3.52761,-1.763807 z"
       id="path1691"
       inkscape:connector-curvature="0"
       inkscape:path-effect="#path-effect1693"
       inkscape:original-d="m 124.35417,48.291667 c 0.8822,-1.764154 1.76415,-3.528044 2.64583,-5.291666 1.76384,0.88152 3.52804,1.763622 5.29166,2.645833 -0.79924,1.821691 -1.76362,3.527512 -2.64583,5.291667 -1.76394,-0.88237 -3.52751,-1.764155 -5.29166,-2.645834 z" />
    <path
       style="fill:none;stroke:#000000;stroke-width:0.26458332px;stroke-linecap:butt;stroke-linejoin:miter;stroke-opacity:1"
       d="m 141.11124,52.701257 c 0.88208,0.882077 2.64597,0.882077 3.52778,-0.440775 0.88181,-1.322852 0.88181,-3.969079 1.1e-4,-4.851015 -0.8817,-0.881936 -2.64576,9.5e-5 -3.52786,1.323117 -0.88211,1.323023 -0.88211,3.086596 -3e-5,3.968673 z"
       id="path1699"
       inkscape:connector-curvature="0"
       inkscape:path-effect="#path-effect1701"
       inkscape:original-d="m 140.22916,53.583334 c 1.76416,-2.65e-4 3.52805,-2.65e-4 5.29167,0 2.7e-4,-2.645704 2.7e-4,-5.291931 0,-7.9375 -1.76345,0.881589 -3.52751,1.763623 -5.29167,2.645833 2.7e-4,1.76394 2.7e-4,3.527513 0,5.291667 z"
       transform="matrix(1,0,0,0.85632522,0,7.6601678)" />
    <path
       style="fill:none;stroke:#000000;stroke-width:0.26458332px;stroke-linecap:butt;stroke-linejoin:miter;stroke-opacity:1"
       d="m 149.04874,52.701257 c 0.88208,0.882077 2.64597,0.882077 3.52778,1.32e-4 0.88181,-0.881945 0.88181,-2.646099 -0.0164,-3.52791 -0.89824,-0.881812 -2.62928,-0.881812 -3.51136,1.32e-4 -0.88208,0.881943 -0.88208,2.645569 0,3.527646 z"
       id="path1703"
       inkscape:connector-curvature="0"
       inkscape:path-effect="#path-effect1705"
       inkscape:original-d="m 148.16666,53.583334 c 1.76416,-2.65e-4 3.52805,-2.65e-4 5.29167,0 2.7e-4,-1.76389 2.7e-4,-3.528044 0,-5.291667 -1.79647,0.227105 -3.52751,-2.64e-4 -5.29167,0 2.7e-4,1.763887 2.7e-4,3.527513 0,5.291667 z" />
    <path
       style="fill:none;stroke:#000000;stroke-width:0.26458332px;stroke-linecap:butt;stroke-linejoin:miter;stroke-opacity:1"
       d="m 159.19118,49.173452 c -1.32297,0.881785 -2.20491,2.645676 -1.6688,3.527779 0.53612,0.882103 2.10983,0.882103 3.43263,1.31e-4 1.32279,-0.881972 2.20487,-2.646128 1.76411,-3.527912 -0.44076,-0.881783 -2.20497,-0.881783 -3.52794,2e-6 z"
       id="path1707"
       inkscape:connector-curvature="0"
       inkscape:path-effect="#path-effect1709"
       inkscape:original-d="m 158.75,48.291667 c -0.88168,1.763623 -1.76363,3.527513 -2.64584,5.291667 1.95434,-0.02222 3.52805,-2.65e-4 5.29167,0 0.88208,-1.76389 1.76416,-3.528044 2.64583,-5.291667 -1.7633,-2.64e-4 -3.52751,-2.64e-4 -5.29166,0 z"
       transform="translate(-1.7640982,-0.8817851)" />
    <path
       style="fill:#ffffff;fill-opacity:0.30882353;stroke:#d3d3d3;stroke-width:0.35770527;stroke-miterlimit:4;stroke-dasharray:none;stroke-dashoffset:0;stroke-opacity:1"
       d="m 104.34078,218.17145 c -10.635105,-0.94376 -39.330721,-4.92026 -42.676877,-5.91396 -4.204211,-1.24852 -5.413675,-4.1033 -4.676731,-11.03884 1.675077,-15.76453 14.578461,-62.38769 24.188736,-87.39996 5.444078,-14.169084 9.748811,-22.082261 13.605742,-25.010758 2.511711,-1.907097 4.227225,-0.97861 5.53598,2.99623 0.64265,1.951809 0.74895,3.151552 0.75504,8.521628 0.008,7.42137 -0.53779,11.59479 -3.87967,29.64286 -4.418443,23.86213 -4.928582,27.69727 -4.964382,37.32142 -0.0215,5.78407 0.09375,7.58447 0.605929,9.46429 2.137232,7.8442 6.70066,12.61031 14.846853,15.50628 1.44448,0.51352 5.54269,1.66575 9.10714,2.56052 3.97948,0.99895 7.58355,2.14635 9.33795,2.97286 5.30039,2.49702 8.51191,6.42013 8.51191,10.39793 0,4.76982 -3.78124,7.92969 -11.36905,9.50077 -3.06917,0.63548 -14.03638,0.91286 -18.92857,0.47873 z"
       id="path1711"
       inkscape:connector-curvature="0"
       transform="scale(0.26458333)" />
    <path
       style="fill:#ffffff;fill-opacity:0.30882353;stroke:#d3d3d3;stroke-width:0.35770527;stroke-miterlimit:4;stroke-dasharray:none;stroke-dashoffset:0;stroke-opacity:1"
       d="m 160.30845,220.12733 c -3.54685,-0.95472 -5.85753,-2.30503 -8.46767,-4.94834 -5.18396,-5.24984 -7.68275,-12.74639 -7.67482,-23.02498 0.005,-5.97537 1.01134,-11.36972 3.12565,-16.74819 2.04702,-5.2073 4.05246,-8.36207 7.56866,-11.90634 2.50212,-2.5221 3.59883,-3.33712 6.08765,-4.52402 3.84775,-1.83496 6.37107,-2.3682 11.07143,-2.33967 11.7208,0.0712 20.94754,5.99538 24.38092,15.65428 2.99013,8.41194 2.32799,20.64721 -1.61033,29.75649 -5.02013,11.61149 -15.82773,18.6843 -28.44138,18.61287 -2.39133,-0.0135 -4.95152,-0.23908 -6.04011,-0.5321 z m 12.97472,-19.04385 c 4.29496,-1.95094 7.00522,-8.53553 6.41248,-15.57912 -0.75495,-8.97123 -5.83782,-13.86394 -12.36971,-11.90694 -4.28253,1.28307 -7.08175,6.76599 -7.08175,13.87123 0,6.62362 2.27137,11.60872 6.23945,13.69405 1.48795,0.78196 4.99359,0.74111 6.79953,-0.0792 z"
       id="path1713"
       inkscape:connector-curvature="0"
       transform="scale(0.26458333)" />
    <path
       style="fill:#ffffff;fill-opacity:0.30882353;stroke:#d3d3d3;stroke-width:0.35770527;stroke-miterlimit:4;stroke-dasharray:none;stroke-dashoffset:0;stroke-opacity:1"
       d="m 222.73364,216.51132 c -2.31663,-0.84348 -5.94488,-4.62683 -7.45693,-7.77567 -3.10696,-6.47024 -4.33661,-17.15044 -3.07907,-26.7435 1.60132,-12.21559 5.9677,-19.04115 15.02585,-23.48859 4.0517,-1.98933 9.80021,-3.59111 15.3546,-4.27844 6.51413,-0.80609 10.87612,0.73213 15.27969,5.38827 5.89762,6.23589 11.73349,18.639 14.19862,30.17668 0.25181,1.17858 0.45508,3.83036 0.4517,5.89286 -0.005,2.99844 -0.16244,4.14936 -0.78602,5.74263 -1.05541,2.69663 -2.88138,4.72621 -5.33693,5.93203 -2.75594,1.35334 -6.09213,1.35268 -10.56647,-0.002 -5.7006,-1.72605 -7.39921,-1.28854 -15.51526,3.99626 -7.07492,4.60694 -9.10937,5.49353 -12.92693,5.63349 -2.15615,0.079 -3.50136,-0.0582 -4.64285,-0.47388 z M 240.8936,195.5827 c 1.83558,-1.21473 3.35806,-3.2713 4.38219,-5.91948 0.59373,-1.53524 0.81815,-3.03802 0.94111,-6.30172 0.23618,-6.26928 -0.84521,-9.97493 -3.72086,-12.75042 -1.75818,-1.69694 -3.549,-2.43013 -5.91165,-2.4203 -2.40589,0.01 -4.39054,0.91747 -6.06269,2.77214 -2.54855,2.82672 -3.55959,6.15581 -3.53936,11.65426 0.0211,5.7247 1.58985,10.18698 4.34995,12.37303 1.92206,1.5223 2.72998,1.7653 5.5407,1.66649 2.07569,-0.073 2.80056,-0.26661 4.02061,-1.074 z"
       id="path1715"
       inkscape:connector-curvature="0"
       transform="scale(0.26458333)" />
    <path
       style="fill:#ffffff;fill-opacity:0.30882353;stroke:#d3d3d3;stroke-width:0.35770527;stroke-miterlimit:4;stroke-dasharray:none;stroke-dashoffset:0;stroke-opacity:1"
       d="m 301.30506,207.07356 c -8.61979,-1.42841 -16.29854,-11.16371 -18.82379,-23.86525 -0.83484,-4.1991 -0.83217,-13.19674 0.005,-16.56531 1.36086,-5.47629 3.76151,-8.7659 7.86006,-10.77062 3.8867,-1.9011 6.73331,-2.3529 16.85167,-2.67462 9.71606,-0.30893 11.42781,-0.60997 13.95941,-2.45504 5.78358,-4.21516 8.09593,-9.64788 13.00981,-30.56577 5.21592,-22.203641 7.34498,-28.910531 10.7587,-33.891774 2.70497,-3.947048 5.80516,-5.400077 8.52298,-3.994637 2.36832,1.224706 4.59895,6.258488 5.37744,12.135079 0.54963,4.149006 0.24931,17.277702 -0.54345,23.757312 -1.58943,12.99122 -5.49641,32.48834 -9.26793,46.25 -7.0248,25.63243 -12.91323,37.61833 -19.73503,40.1707 -1.60559,0.60072 -2.78611,0.72216 -7.02041,0.72216 -3.77313,0 -6.38033,0.22363 -10.07589,0.86426 -6.4387,1.11616 -8.47607,1.28162 -10.87849,0.88351 z m 10.71429,-15.54806 c 7.65311,-1.82591 13.48338,-7.54407 13.86914,-13.60246 0.20534,-3.22466 -0.44617,-5.1685 -2.47707,-7.39062 -3.1197,-3.41346 -7.75092,-5.19132 -13.54918,-5.20135 -5.68901,-0.01 -10.96763,2.07402 -14.77953,5.8346 -7.04915,6.95423 -6.02622,16.79763 2.06001,19.82308 4.06772,1.52192 9.86993,1.73127 14.87663,0.53675 z"
       id="path1717"
       inkscape:connector-curvature="0"
       transform="scale(0.26458333)" />
    <path
       style="fill:#ffffff;fill-opacity:0.30882353;stroke:#d3d3d3;stroke-width:0.35770527;stroke-miterlimit:4;stroke-dasharray:none;stroke-dashoffset:0;stroke-opacity:1"
       d="m 370.37714,150.50946 c -2.53807,-0.55219 -5.3459,-1.89824 -6.46574,-3.09962 -2.85268,-3.0604 -2.33095,-8.22678 1.08033,-10.6979 3.55398,-2.57449 10.96379,-3.41267 16.14302,-1.82606 6.37996,1.95445 8.78532,7.44554 5.29106,12.07874 -2.44222,3.23826 -9.89318,4.88403 -16.04867,3.54484 z"
       id="path1719"
       inkscape:connector-curvature="0"
       transform="scale(0.26458333)" />
    <path
       style="fill:#ffffff;fill-opacity:0.30882353;stroke:#d3d3d3;stroke-width:0.35770527;stroke-miterlimit:4;stroke-dasharray:none;stroke-dashoffset:0;stroke-opacity:1"
       d="m 368.55924,207.84527 c -1.89168,-0.85884 -3.51468,-3.06882 -4.06734,-5.53835 -0.70581,-3.15391 -0.22148,-10.78741 1.28138,-20.19542 1.59997,-10.01596 1.81638,-15.23433 0.74679,-18.00748 -0.67505,-1.7502 -0.67479,-1.75996 0.062,-2.35655 1.42771,-1.15609 7.57592,-2.92815 10.82208,-3.11917 6.58042,-0.38724 7.62346,1.72397 6.04381,12.2332 -1.23889,8.24223 -0.98256,9.6156 2.46471,13.20557 1.71453,1.78551 2.15659,2.50562 2.48865,4.05396 0.54038,2.51969 0.50144,4.42425 -0.14667,7.17382 -0.74845,3.17522 -2.04315,5.37894 -4.60601,7.83993 -4.55223,4.37127 -11.23885,6.45866 -15.08936,4.71049 z"
       id="path1721"
       inkscape:connector-curvature="0"
       transform="scale(0.26458333)" />
    <path
       style="fill:#ffffff;fill-opacity:0.30882353;stroke:#d3d3d3;stroke-width:0.35770527;stroke-miterlimit:4;stroke-dasharray:none;stroke-dashoffset:0;stroke-opacity:1"
       d="m 408.58596,209.30802 c -2.87658,-1.80607 -3.96501,-7.87128 -2.98985,-16.6608 0.86702,-7.81487 3.38985,-17.99441 5.66044,-22.83971 1.90031,-4.05515 3.42148,-5.61644 7.52987,-7.72841 1.87633,-0.96454 4.67073,-2.45779 6.20978,-3.31831 3.43712,-1.92179 6.12164,-2.53896 9.80747,-2.25473 8.65907,0.66774 15.85867,6.13219 18.12232,13.75473 3.38463,11.39728 -1.922,33.20343 -9.31864,38.29246 -2.65364,1.82575 -4.74938,1.84929 -6.40806,0.072 -1.9295,-2.06751 -2.39269,-6.57882 -1.58552,-15.44229 0.50684,-5.56543 0.5195,-12.35984 0.0264,-14.14248 -0.86067,-3.11119 -3.35879,-5.50697 -5.72717,-5.49253 -1.81928,0.0111 -3.94728,1.07802 -5.36056,2.68765 -2.36669,2.69551 -3.50768,6.23734 -5.22948,16.23308 -1.24531,7.22954 -2.06603,10.39864 -3.39859,13.12322 -1.8182,3.71753 -4.87261,5.26428 -7.33837,3.71615 z"
       id="path1723"
       inkscape:connector-curvature="0"
       transform="scale(0.26458333)" />
    <path
       style="fill:#ffffff;fill-opacity:0.30882353;stroke:#d3d3d3;stroke-width:0.35770527;stroke-miterlimit:4;stroke-dasharray:none;stroke-dashoffset:0;stroke-opacity:1"
       d="m 458.6054,266.57536 c -10.74892,-2.41323 -21.17818,-10.34749 -19.6576,-14.95489 0.74646,-2.26178 3.55649,-4.11586 7.37725,-4.86755 2.80444,-0.55174 5.21441,0.0343 10.03138,2.43928 4.62449,2.30891 6.90411,3.02061 9.73022,3.03779 3.79151,0.023 5.84329,-0.87207 8.78881,-3.8342 2.96887,-2.98565 4.73837,-6.2906 6.90214,-12.89143 2.76652,-8.43957 5.39347,-22.53609 5.3973,-28.9625 0.002,-2.79219 -0.098,-3.33865 -0.70976,-3.89229 -0.78948,-0.71447 -0.73225,-0.74205 -5.89467,2.84018 -1.72435,1.19653 -2.37534,1.43491 -4.23352,1.55025 -6.02181,0.37377 -11.64352,-4.82033 -13.61571,-12.58005 -2.3996,-9.44138 -1.2272,-22.93536 2.55316,-29.38606 3.62673,-6.18855 10.2179,-9.34638 17.41796,-8.34494 1.49389,0.20778 4.92206,0.92503 7.61817,1.59389 8.20666,2.03593 9.2975,2.00781 15.20142,-0.39191 4.1689,-1.6945 5.66691,-1.73822 7.03653,-0.20535 1.41826,1.58731 1.81872,3.20347 2.02909,8.18897 0.35706,8.46194 -1.98691,22.10329 -7.74539,45.07638 -5.67225,22.62904 -10.57451,37.04664 -14.67234,43.15147 -3.68634,5.4918 -9.4917,9.43411 -17.30444,11.75112 -2.71623,0.80554 -4.04438,0.9726 -8.57143,1.07814 -3.80097,0.0886 -6.03148,-0.0265 -7.67857,-0.3963 z m 30.89286,-78.87559 c 2.18067,-1.01764 4.23358,-3.22678 5.4851,-5.90255 1.31028,-2.80141 1.33226,-6.5987 0.0527,-9.10675 -2.32019,-4.54781 -8.42528,-7.21762 -13.27842,-5.80678 -5.48238,1.59377 -9.26773,9.12588 -7.24634,14.41881 0.70943,1.85762 2.83441,4.34224 4.69962,5.495 3.07746,1.90198 7.34334,2.27612 10.28734,0.90227 z"
       id="path1727"
       inkscape:connector-curvature="0"
       transform="scale(0.26458333)" />
    <path
       style="fill:#ffffff;fill-opacity:0.30882353;stroke:#d3d3d3;stroke-width:0.35770527;stroke-miterlimit:4;stroke-dasharray:none;stroke-dashoffset:0;stroke-opacity:1"
       d="m 536.70964,200.54377 c -3.37531,-0.93415 -5.5477,-4.2342 -5.1268,-7.78808 0.57975,-4.89506 4.76674,-9.34902 10.03591,-10.67581 5.50202,-1.38543 8.32349,4.41345 6.06107,12.4571 -1.28604,4.57233 -6.27763,7.3055 -10.97018,6.00679 z"
       id="path1729"
       inkscape:connector-curvature="0"
       transform="scale(0.26458333)" />
    <path
       style="fill:#ffffff;fill-opacity:0.30882353;stroke:#d3d3d3;stroke-width:0.35770527;stroke-miterlimit:4;stroke-dasharray:none;stroke-dashoffset:0;stroke-opacity:1"
       d="m 567.07985,200.5662 c -1.84984,-0.5754 -3.67928,-2.12388 -4.62774,-3.91704 -1.10596,-2.0909 -1.12294,-6.24204 -0.0339,-8.28766 1.54637,-2.90465 3.91925,-4.22257 7.61576,-4.22988 2.92298,-0.006 5.63608,1.26429 6.94886,3.25293 2.57602,3.90223 1.65739,9.71777 -1.91534,12.12543 -2.237,1.50751 -5.25416,1.90648 -7.98764,1.05622 z"
       id="path1731"
       inkscape:connector-curvature="0"
       transform="scale(0.26458333)" />
    <path
       style="fill:#ffffff;fill-opacity:0.30882353;stroke:#d3d3d3;stroke-width:0.35770527;stroke-miterlimit:4;stroke-dasharray:none;stroke-dashoffset:0;stroke-opacity:1"
       d="m 592.21921,197.4809 c -0.66419,-0.1641 -1.69944,-0.79019 -2.30056,-1.39131 -1.46686,-1.46686 -1.47222,-3.6778 -0.0162,-6.6699 2.977,-6.11764 10.65741,-10.13329 15.69875,-8.20799 2.82443,1.07866 3.22112,3.74207 1.16257,7.80547 -2.8835,5.69175 -9.70275,9.65999 -14.54457,8.46373 z"
       id="path1733"
       inkscape:connector-curvature="0"
       transform="scale(0.26458333)" />
  </g>
</svg>
