<?xml version="1.0" encoding="UTF-8" standalone="no"?>
<!-- Created with Inkscape (http://www.inkscape.org/) -->

<svg
   xmlns:dc="http://purl.org/dc/elements/1.1/"
   xmlns:cc="http://creativecommons.org/ns#"
   xmlns:rdf="http://www.w3.org/1999/02/22-rdf-syntax-ns#"
   xmlns:svg="http://www.w3.org/2000/svg"
   xmlns="http://www.w3.org/2000/svg"
   xmlns:sodipodi="http://sodipodi.sourceforge.net/DTD/sodipodi-0.dtd"
   xmlns:inkscape="http://www.inkscape.org/namespaces/inkscape"
   width="199.50488mm"
   height="79.465424mm"
   viewBox="0 0 199.50488 79.465424"
   version="1.1"
   id="svg8"
   sodipodi:docname="title_screen.svg"
   inkscape:version="0.92.5 (2060ec1f9f, 2020-04-08)">
  <defs
     id="defs2">
    <inkscape:path-effect
       effect="bspline"
       id="path-effect1017"
       is_visible="true"
       weight="33.333333"
       steps="2"
       helper_size="0"
       apply_no_weight="true"
       apply_with_weight="true"
       only_selected="false" />
    <inkscape:path-effect
       effect="bspline"
       id="path-effect941"
       is_visible="true"
       weight="33.333333"
       steps="2"
       helper_size="0"
       apply_no_weight="true"
       apply_with_weight="true"
       only_selected="false" />
    <inkscape:path-effect
       effect="bspline"
       id="path-effect937"
       is_visible="true"
       weight="33.333333"
       steps="2"
       helper_size="0"
       apply_no_weight="true"
       apply_with_weight="true"
       only_selected="false" />
    <inkscape:path-effect
       effect="bspline"
       id="path-effect933"
       is_visible="true"
       weight="33.333333"
       steps="2"
       helper_size="0"
       apply_no_weight="true"
       apply_with_weight="true"
       only_selected="false" />
    <inkscape:path-effect
       effect="bspline"
       id="path-effect929"
       is_visible="true"
       weight="33.333333"
       steps="2"
       helper_size="0"
       apply_no_weight="true"
       apply_with_weight="true"
       only_selected="false" />
    <inkscape:path-effect
       effect="bspline"
       id="path-effect925"
       is_visible="true"
       weight="33.333333"
       steps="2"
       helper_size="0"
       apply_no_weight="true"
       apply_with_weight="true"
       only_selected="false" />
    <inkscape:path-effect
       effect="bspline"
       id="path-effect921"
       is_visible="true"
       weight="33.333333"
       steps="2"
       helper_size="0"
       apply_no_weight="true"
       apply_with_weight="true"
       only_selected="false" />
    <inkscape:path-effect
       effect="bspline"
       id="path-effect917"
       is_visible="true"
       weight="33.333333"
       steps="2"
       helper_size="0"
       apply_no_weight="true"
       apply_with_weight="true"
       only_selected="false" />
    <inkscape:path-effect
       effect="bspline"
       id="path-effect913"
       is_visible="true"
       weight="33.333333"
       steps="2"
       helper_size="0"
       apply_no_weight="true"
       apply_with_weight="true"
       only_selected="false" />
    <inkscape:path-effect
       effect="bspline"
       id="path-effect863"
       is_visible="true"
       weight="33.333333"
       steps="2"
       helper_size="0"
       apply_no_weight="true"
       apply_with_weight="true"
       only_selected="false" />
    <inkscape:path-effect
       effect="bspline"
       id="path-effect859"
       is_visible="true"
       weight="33.333333"
       steps="2"
       helper_size="0"
       apply_no_weight="true"
       apply_with_weight="true"
       only_selected="false" />
    <inkscape:path-effect
       effect="bspline"
       id="path-effect855"
       is_visible="true"
       weight="33.333333"
       steps="2"
       helper_size="0"
       apply_no_weight="true"
       apply_with_weight="true"
       only_selected="false" />
    <inkscape:path-effect
       effect="bspline"
       id="path-effect833"
       is_visible="true"
       weight="33.333333"
       steps="2"
       helper_size="0"
       apply_no_weight="true"
       apply_with_weight="true"
       only_selected="false" />
    <inkscape:path-effect
       effect="bspline"
       id="path-effect829"
       is_visible="true"
       weight="33.333333"
       steps="2"
       helper_size="0"
       apply_no_weight="true"
       apply_with_weight="true"
       only_selected="false" />
    <inkscape:path-effect
       effect="bspline"
       id="path-effect821"
       is_visible="true"
       weight="33.333333"
       steps="2"
       helper_size="0"
       apply_no_weight="true"
       apply_with_weight="true"
       only_selected="false" />
    <inkscape:path-effect
       effect="bspline"
       id="path-effect833-3"
       is_visible="true"
       weight="33.333333"
       steps="2"
       helper_size="0"
       apply_no_weight="true"
       apply_with_weight="true"
       only_selected="false" />
    <inkscape:path-effect
       effect="bspline"
       id="path-effect855-7"
       is_visible="true"
       weight="33.333333"
       steps="2"
       helper_size="0"
       apply_no_weight="true"
       apply_with_weight="true"
       only_selected="false" />
    <inkscape:path-effect
       effect="bspline"
       id="path-effect833-3-5"
       is_visible="true"
       weight="33.333333"
       steps="2"
       helper_size="0"
       apply_no_weight="true"
       apply_with_weight="true"
       only_selected="false" />
    <inkscape:path-effect
       effect="bspline"
       id="path-effect833-35"
       is_visible="true"
       weight="33.333333"
       steps="2"
       helper_size="0"
       apply_no_weight="true"
       apply_with_weight="true"
       only_selected="false" />
    <inkscape:path-effect
       effect="bspline"
       id="path-effect829-6"
       is_visible="true"
       weight="33.333333"
       steps="2"
       helper_size="0"
       apply_no_weight="true"
       apply_with_weight="true"
       only_selected="false" />
    <inkscape:path-effect
       effect="bspline"
       id="path-effect821-2"
       is_visible="true"
       weight="33.333333"
       steps="2"
       helper_size="0"
       apply_no_weight="true"
       apply_with_weight="true"
       only_selected="false" />
    <inkscape:path-effect
       effect="bspline"
       id="path-effect833-9"
       is_visible="true"
       weight="33.333333"
       steps="2"
       helper_size="0"
       apply_no_weight="true"
       apply_with_weight="true"
       only_selected="false" />
    <inkscape:path-effect
       effect="bspline"
       id="path-effect829-60"
       is_visible="true"
       weight="33.333333"
       steps="2"
       helper_size="0"
       apply_no_weight="true"
       apply_with_weight="true"
       only_selected="false" />
    <inkscape:path-effect
       effect="bspline"
       id="path-effect933-2"
       is_visible="true"
       weight="33.333333"
       steps="2"
       helper_size="0"
       apply_no_weight="true"
       apply_with_weight="true"
       only_selected="false" />
    <inkscape:path-effect
       effect="bspline"
       id="path-effect937-1"
       is_visible="true"
       weight="33.333333"
       steps="2"
       helper_size="0"
       apply_no_weight="true"
       apply_with_weight="true"
       only_selected="false" />
  </defs>
  <sodipodi:namedview
     id="base"
     pagecolor="#ffffff"
     bordercolor="#666666"
     borderopacity="1.0"
     inkscape:pageopacity="0.0"
     inkscape:pageshadow="2"
     inkscape:zoom="0.7"
     inkscape:cx="482.37269"
     inkscape:cy="-17.6169"
     inkscape:document-units="mm"
     inkscape:current-layer="layer1"
     showgrid="true"
     inkscape:window-width="1848"
     inkscape:window-height="1016"
     inkscape:window-x="1992"
     inkscape:window-y="27"
     inkscape:window-maximized="1"
     fit-margin-top="0"
     fit-margin-left="0"
     fit-margin-right="0"
     fit-margin-bottom="0">
    <inkscape:grid
       type="xygrid"
       id="grid815"
       originx="-21.995304"
       originy="-187.28101" />
  </sodipodi:namedview>
  <metadata
     id="metadata5">
    <rdf:RDF>
      <cc:Work
         rdf:about="">
        <dc:format>image/svg+xml</dc:format>
        <dc:type
           rdf:resource="http://purl.org/dc/dcmitype/StillImage" />
        <dc:title></dc:title>
      </cc:Work>
    </rdf:RDF>
  </metadata>
  <g
     inkscape:label="Layer 1"
     inkscape:groupmode="layer"
     id="layer1"
     transform="translate(-21.995304,-30.253564)">
    <path
       style="fill:none;stroke:#000000;stroke-width:0.26458332px;stroke-linecap:butt;stroke-linejoin:miter;stroke-opacity:1"
       d="m 28.001927,36.164639 c -1.984448,4.63018 -5.071254,13.008653 -5.732685,17.639064 -0.661431,4.630412 1.10239,5.512322 3.0867,2.646015 1.984309,-2.866307 4.189303,-9.481285 5.512288,-13.009026 1.322986,-3.527741 1.763979,-3.968734 2.645374,-0.663531 0.881396,3.305203 2.205106,10.364992 3.528195,13.892874 1.323088,3.527882 2.645965,3.527882 5.291341,-0.881118 2.645376,-4.409 6.61492,-13.230208 7.937819,-18.080707 1.322898,-4.850498 -6.6e-5,-5.732474 -1.984464,-3.086679 -1.984397,2.645796 -4.630108,8.819121 -6.173459,11.906087 -1.54335,3.086966 -1.984299,3.086966 -2.866794,-0.0018 -0.882495,-3.088758 -2.204618,-9.258664 -3.527413,-12.565822 -1.322795,-3.307159 -2.645754,-3.748145 -3.748184,-3.527765 -1.10243,0.22038 -1.98427,1.102219 -3.968718,5.7324 z"
       id="path819"
       inkscape:connector-curvature="0"
       inkscape:path-effect="#path-effect821"
       inkscape:original-d="m 29.104166,32.416668 c -3.086541,8.378205 -6.173346,16.756678 -9.260416,25.135416 1.76422,0.881713 3.528042,1.763622 5.291666,2.645833 2.204993,-6.614453 4.409988,-13.229431 6.614584,-19.84375 0.441216,-0.441216 0.882208,-0.88221 1.322916,-1.322916 1.322388,7.051056 2.646098,14.110845 3.96875,21.166666 1.323221,-2.64e-4 2.646098,-2.64e-4 3.96875,0 3.968221,-8.817946 7.937765,-17.639154 11.90625,-26.458333 -1.322604,-0.882179 -2.645569,-1.764154 -3.96875,-2.645833 -2.64569,6.173631 -5.291402,12.346956 -7.9375,18.520833 -0.44073,-2.65e-4 -0.881679,-2.65e-4 -1.322916,0 C 38.364054,43.437002 37.041931,37.267096 35.71875,31.093751 34.39614,30.652526 33.073181,30.21154 31.75,29.770834 c -0.881785,0.881785 -1.763626,1.763623 -2.645834,2.645834 z" />
    <path
       style="fill:none;stroke:#000000;stroke-width:0.26458332px;stroke-linecap:butt;stroke-linejoin:miter;stroke-opacity:1"
       d="m 52.916805,47.630075 c -1.322936,1.543217 -2.645852,5.070994 -2.645822,7.276075 2.9e-5,2.205081 1.322827,3.086947 3.086767,3.527899 1.76394,0.440952 3.968904,0.440952 5.291741,-1.27e-4 1.322837,-0.441079 1.763862,-1.323128 2.220392,-1.291695 0.45653,0.03143 0.866174,0.850722 1.748357,1.291748 0.882183,0.441026 2.20494,0.441026 2.645811,-1.54307 0.440871,-1.984096 -1.89e-4,-5.953637 -0.661476,-7.937895 -0.661288,-1.984259 -1.543284,-1.984259 -2.645951,-0.881654 -1.102667,1.102606 -2.425187,3.306805 -3.527641,4.409391 -1.102454,1.102587 -1.984276,1.102587 -2.204797,-3.28e-4 -0.220521,-1.102915 0.220319,-3.307113 -0.220514,-4.62982 -0.440832,-1.322707 -1.763931,-1.76374 -3.086867,-0.220524 z"
       id="path827"
       inkscape:connector-curvature="0"
       inkscape:path-effect="#path-effect829"
       inkscape:original-d="m 52.916666,45.645834 c -1.322652,3.527512 -2.645569,7.055289 -3.96875,10.583333 1.3233,0.881759 2.646098,1.763623 3.96875,2.645834 2.205024,-2.65e-4 4.409988,-2.65e-4 6.614583,0 0.441185,-0.882105 0.882208,-1.764155 1.322917,-2.645834 0.472564,0.944335 0.882208,1.763623 1.322917,2.645834 1.32334,-2.65e-4 2.646097,-2.65e-4 3.968749,0 -0.440618,-3.968224 -0.881678,-7.937765 -1.322916,-11.90625 -0.881629,-2.65e-4 -1.763625,-2.65e-4 -2.645833,0 -1.323049,2.205257 -2.645569,4.409456 -3.96875,6.614583 -0.881804,-2.65e-4 -1.763626,-2.65e-4 -2.645834,0 0.44137,-2.205789 0.882208,-4.409988 1.322917,-6.614583 -1.32247,-0.441177 -2.645569,-0.882211 -3.96875,-1.322917 z" />
    <path
       style="fill:none;stroke:#000000;stroke-width:0.26458332px;stroke-linecap:butt;stroke-linejoin:miter;stroke-opacity:1"
       d="m 72.319615,44.102143 c -0.882038,2.866296 -2.204955,8.157963 -2.204876,11.024478 7.9e-5,2.866514 1.322919,3.307461 2.866269,3.52792 1.54335,0.22046 3.307449,0.22046 4.6303,-0.220579 1.322852,-0.441039 2.204929,-1.323116 2.204928,-2.204796 -10e-7,-0.881679 -0.88221,-1.763889 -1.764022,-2.20486 -0.881811,-0.440972 -1.763757,-0.440972 -2.204861,-1.102761 -0.441104,-0.661789 -0.441104,-1.984309 0.220381,-2.86613 0.661485,-0.881821 1.984666,-1.322882 2.645966,-2.204746 0.661299,-0.881865 0.661299,-2.2051 1.06e-4,-2.866426 -0.661194,-0.661326 -1.984376,-0.661326 -2.425383,-1.323076 -0.441007,-0.661751 -1.24e-4,-1.9844 -0.220424,-2.6457 -0.220301,-0.6613 -1.102458,-0.6613 -1.763982,-0.44088 -0.661524,0.22042 -1.102364,0.661259 -1.984402,3.527556 z"
       id="path831"
       inkscape:connector-curvature="0"
       inkscape:path-effect="#path-effect833"
       inkscape:original-d="m 72.760416,41.677084 c -1.322652,5.291402 -2.645569,10.583069 -3.96875,15.875 1.323258,0.440732 2.646098,0.881679 3.96875,1.322917 1.763942,-2.65e-4 3.528041,-2.65e-4 5.291666,0 0.882076,-0.882079 1.764155,-1.764155 2.645834,-2.645834 -0.881415,-0.881946 -1.763626,-1.764154 -2.645834,-2.645833 -0.881679,-2.65e-4 -1.763625,-2.65e-4 -2.645833,0 2.65e-4,-1.323578 2.65e-4,-2.646098 0,-3.96875 1.322917,-0.44115 2.646098,-0.882211 3.96875,-1.322917 2.65e-4,-1.322863 2.65e-4,-2.646098 0,-3.96875 -1.322387,-2.64e-4 -2.645569,-2.64e-4 -3.96875,0 0.441325,-1.323448 0.882208,-2.646097 1.322917,-3.96875 -0.881468,-2.64e-4 -1.763625,-2.64e-4 -2.645834,0 -0.44084,0.440839 -0.881679,0.881679 -1.322916,1.322917 z" />
    <path
       transform="translate(12.347051,0.22077385)"
       style="fill:none;stroke:#000000;stroke-width:0.26458332px;stroke-linecap:butt;stroke-linejoin:miter;stroke-opacity:1"
       d="m 72.319615,44.102143 c -0.882038,2.866296 -2.204955,8.157963 -2.204876,11.024478 7.9e-5,2.866514 1.322919,3.307461 2.866269,3.52792 1.54335,0.22046 3.307449,0.22046 4.6303,-0.220579 1.322852,-0.441039 2.204929,-1.323116 2.204928,-2.204796 -10e-7,-0.881679 -0.88221,-1.763889 -1.764022,-2.20486 -0.881811,-0.440972 -1.763757,-0.440972 -2.204861,-1.102761 -0.441104,-0.661789 -0.441104,-1.984309 0.220381,-2.86613 0.661485,-0.881821 1.984666,-1.322882 2.645966,-2.204746 0.661299,-0.881865 0.661299,-2.2051 1.06e-4,-2.866426 -0.661194,-0.661326 -1.984376,-0.661326 -2.425383,-1.323076 -0.441007,-0.661751 -1.24e-4,-1.9844 -0.220424,-2.6457 -0.220301,-0.6613 -1.102458,-0.6613 -1.763982,-0.44088 -0.661524,0.22042 -1.102364,0.661259 -1.984402,3.527556 z"
       id="path831-6"
       inkscape:connector-curvature="0"
       inkscape:path-effect="#path-effect833-3"
       inkscape:original-d="m 72.760416,41.677084 c -1.322652,5.291402 -2.645569,10.583069 -3.96875,15.875 1.323258,0.440732 2.646098,0.881679 3.96875,1.322917 1.763942,-2.65e-4 3.528041,-2.65e-4 5.291666,0 0.882076,-0.882079 1.764155,-1.764155 2.645834,-2.645834 -0.881415,-0.881946 -1.763626,-1.764154 -2.645834,-2.645833 -0.881679,-2.65e-4 -1.763625,-2.65e-4 -2.645833,0 2.65e-4,-1.323578 2.65e-4,-2.646098 0,-3.96875 1.322917,-0.44115 2.646098,-0.882211 3.96875,-1.322917 2.65e-4,-1.322863 2.65e-4,-2.646098 0,-3.96875 -1.322387,-2.64e-4 -2.645569,-2.64e-4 -3.96875,0 0.441325,-1.323448 0.882208,-2.646097 1.322917,-3.96875 -0.881468,-2.64e-4 -1.763625,-2.64e-4 -2.645834,0 -0.44084,0.440839 -0.881679,0.881679 -1.322916,1.322917 z" />
    <path
       style="fill:none;stroke:#000000;stroke-width:0.26458332px;stroke-linecap:butt;stroke-linejoin:miter;stroke-opacity:1"
       d="m 98.116514,49.393938 c -1.102498,1.10227 -1.984442,3.307131 -1.994156,5.056706 -0.0097,1.749574 0.891489,3.101379 2.435095,3.762868 1.543607,0.661489 3.748367,0.661489 3.968947,1.763643 0.22057,1.102154 -1.54353,3.307278 -3.087056,4.189365 -1.543528,0.882086 -2.86627,0.441172 -3.968673,0.441092 -1.102404,-7.9e-5 -1.984243,0.440841 -2.204836,1.102484 -0.220592,0.661643 0.220221,1.543269 1.102351,2.204834 0.88213,0.661565 2.204888,1.102485 3.968724,0.881962 1.76384,-0.220523 3.96897,-1.102575 5.73265,-3.52773 1.76369,-2.425155 3.0868,-6.394477 3.7482,-9.040233 0.66141,-2.645756 0.66141,-3.968776 0.66141,-5.071119 0,-1.102343 0,-1.984464 -0.44068,-2.204962 -0.44069,-0.220499 -1.3229,0.220605 -2.20508,1.323272 -0.88218,1.102667 -1.76381,2.865923 -2.64578,3.748027 -0.88197,0.882104 -1.76376,0.882104 -1.98428,-0.220811 -0.22052,-1.102915 0.22032,-3.307113 -0.22046,-4.409391 -0.44078,-1.102278 -1.763877,-1.102278 -2.866376,-7e-6 z"
       id="path853"
       inkscape:connector-curvature="0"
       inkscape:path-effect="#path-effect855"
       inkscape:original-d="m 97.895832,48.291667 c -0.881679,2.204596 -1.763625,4.409456 -2.645833,6.614584 1.008348,1.196832 1.764154,2.645568 2.645833,3.96875 2.205228,-2.65e-4 4.409988,-2.65e-4 6.614588,0 -1.76342,2.204331 -3.52752,4.409455 -5.291671,6.614583 -1.322827,-0.441296 -2.645569,-0.882211 -3.96875,-1.322917 -0.881785,0.440759 -1.763625,0.881679 -2.645833,1.322917 0.441396,0.881996 0.882208,1.763622 1.322916,2.645833 1.32334,0.440759 2.646098,0.881679 3.96875,1.322917 2.204858,-0.882105 4.409988,-1.764155 6.614588,-2.645834 1.32299,-3.96844 2.64609,-7.937764 3.96875,-11.906249 2.6e-4,-1.323078 2.6e-4,-2.646098 0,-3.96875 2.6e-4,-0.882034 2.6e-4,-1.764155 0,-2.645834 -0.88142,0.440574 -1.76363,0.881679 -2.64584,1.322917 -0.88199,1.764258 -1.76362,3.527512 -2.64583,5.291667 -0.88184,-2.65e-4 -1.76363,-2.65e-4 -2.64583,0 0.44137,-2.205789 0.8822,-4.409988 1.32291,-6.614584 -1.32247,-2.64e-4 -2.645567,-2.64e-4 -3.968748,0 z" />
    <path
       style="fill:none;stroke:#000000;stroke-width:0.26458332px;stroke-linecap:butt;stroke-linejoin:miter;stroke-opacity:1"
       d="m 110.46352,44.543301 c -0.22051,0.661357 0.22047,2.866217 0.88212,3.96875 0.66165,1.102533 1.54351,1.102533 1.7639,0.441194 0.2204,-0.661338 -0.2207,-1.984655 -0.88208,-3.086953 -0.66138,-1.102299 -1.54343,-1.984348 -1.76394,-1.322991 z"
       id="path857"
       inkscape:connector-curvature="0"
       inkscape:path-effect="#path-effect859"
       inkscape:original-d="m 109.80208,43.000001 c 0.44124,2.204595 0.88221,4.409456 1.32292,6.614583 0.88229,-2.65e-4 1.76415,-2.65e-4 2.64583,0 -0.44057,-1.322784 -0.88168,-2.646098 -1.32291,-3.96875 -0.88158,-0.882105 -1.76363,-1.764154 -2.64584,-2.645833 z" />
    <path
       style="fill:none;stroke:#000000;stroke-width:0.26458332px;stroke-linecap:butt;stroke-linejoin:miter;stroke-opacity:1"
       d="m 119.72406,50.275962 c -1.10227,-0.661378 -2.86616,-0.661378 -4.18919,0.220539 -1.32304,0.881917 -2.20485,2.645546 -2.2048,3.748198 5e-5,1.102653 0.88184,1.543548 0.66154,2.204825 -0.22031,0.661276 -1.54339,1.543329 -1.76393,2.425476 -0.22053,0.882147 0.6612,1.763888 1.98427,1.54329 1.32307,-0.220599 3.08695,-1.543509 3.74827,-2.866286 0.66133,-1.322777 0.22028,-2.645912 0.66133,-3.307291 0.44105,-0.661379 1.76413,-0.661379 2.20499,-1.322786 0.44085,-0.661407 -2e-4,-1.984587 -1.10248,-2.645965 z"
       id="path861"
       inkscape:connector-curvature="0"
       inkscape:path-effect="#path-effect863"
       inkscape:original-d="m 120.38542,49.614584 c -1.76363,-2.65e-4 -3.52752,-2.65e-4 -5.29167,0 -0.88181,1.763887 -1.76363,3.527512 -2.64583,5.291667 0.88236,0.440785 1.76415,0.881679 2.64583,1.322916 -1.32249,0.881573 -2.64557,1.763623 -3.96875,2.645834 0.88241,0.881882 1.76415,1.763622 2.64583,2.645833 1.76416,-1.323184 3.52804,-2.646098 5.29167,-3.96875 -0.44064,-1.322962 -0.88168,-2.646098 -1.32292,-3.96875 1.32302,-2.65e-4 2.6461,-2.65e-4 3.96875,0 -0.44062,-1.322919 -0.88168,-2.646098 -1.32291,-3.96875 z" />
    <path
       transform="translate(112.88872,1.5436905)"
       style="fill:none;stroke:#000000;stroke-width:0.26458332px;stroke-linecap:butt;stroke-linejoin:miter;stroke-opacity:1"
       d="m 28.001927,36.164639 c -1.984448,4.63018 -5.071254,13.008653 -5.732685,17.639064 -0.661431,4.630412 1.10239,5.512322 3.0867,2.646015 1.984309,-2.866307 4.189303,-9.481285 5.512288,-13.009026 1.322986,-3.527741 1.763979,-3.968734 2.645374,-0.663531 0.881396,3.305203 2.205106,10.364992 3.528195,13.892874 1.323088,3.527882 2.645965,3.527882 5.291341,-0.881118 2.645376,-4.409 6.61492,-13.230208 7.937819,-18.080707 1.322898,-4.850498 -6.6e-5,-5.732474 -1.984464,-3.086679 -1.984397,2.645796 -4.630108,8.819121 -6.173459,11.906087 -1.54335,3.086966 -1.984299,3.086966 -2.866794,-0.0018 -0.882495,-3.088758 -2.204618,-9.258664 -3.527413,-12.565822 -1.322795,-3.307159 -2.645754,-3.748145 -3.748184,-3.527765 -1.10243,0.22038 -1.98427,1.102219 -3.968718,5.7324 z"
       id="path819-9"
       inkscape:connector-curvature="0"
       inkscape:path-effect="#path-effect821-2"
       inkscape:original-d="m 29.104166,32.416668 c -3.086541,8.378205 -6.173346,16.756678 -9.260416,25.135416 1.76422,0.881713 3.528042,1.763622 5.291666,2.645833 2.204993,-6.614453 4.409988,-13.229431 6.614584,-19.84375 0.441216,-0.441216 0.882208,-0.88221 1.322916,-1.322916 1.322388,7.051056 2.646098,14.110845 3.96875,21.166666 1.323221,-2.64e-4 2.646098,-2.64e-4 3.96875,0 3.968221,-8.817946 7.937765,-17.639154 11.90625,-26.458333 -1.322604,-0.882179 -2.645569,-1.764154 -3.96875,-2.645833 -2.64569,6.173631 -5.291402,12.346956 -7.9375,18.520833 -0.44073,-2.65e-4 -0.881679,-2.65e-4 -1.322916,0 C 38.364054,43.437002 37.041931,37.267096 35.71875,31.093751 34.39614,30.652526 33.073181,30.21154 31.75,29.770834 c -0.881785,0.881785 -1.763626,1.763623 -2.645834,2.645834 z" />
    <path
       transform="translate(112.88872,1.5436905)"
       style="fill:none;stroke:#000000;stroke-width:0.26458332px;stroke-linecap:butt;stroke-linejoin:miter;stroke-opacity:1"
       d="m 52.916805,47.630075 c -1.322936,1.543217 -2.645852,5.070994 -2.645822,7.276075 2.9e-5,2.205081 1.322827,3.086947 3.086767,3.527899 1.76394,0.440952 3.968904,0.440952 5.291741,-1.27e-4 1.322837,-0.441079 1.763862,-1.323128 2.220392,-1.291695 0.45653,0.03143 0.866174,0.850722 1.748357,1.291748 0.882183,0.441026 2.20494,0.441026 2.645811,-1.54307 0.440871,-1.984096 -1.89e-4,-5.953637 -0.661476,-7.937895 -0.661288,-1.984259 -1.543284,-1.984259 -2.645951,-0.881654 -1.102667,1.102606 -2.425187,3.306805 -3.527641,4.409391 -1.102454,1.102587 -1.984276,1.102587 -2.204797,-3.28e-4 -0.220521,-1.102915 0.220319,-3.307113 -0.220514,-4.62982 -0.440832,-1.322707 -1.763931,-1.76374 -3.086867,-0.220524 z"
       id="path827-1"
       inkscape:connector-curvature="0"
       inkscape:path-effect="#path-effect829-6"
       inkscape:original-d="m 52.916666,45.645834 c -1.322652,3.527512 -2.645569,7.055289 -3.96875,10.583333 1.3233,0.881759 2.646098,1.763623 3.96875,2.645834 2.205024,-2.65e-4 4.409988,-2.65e-4 6.614583,0 0.441185,-0.882105 0.882208,-1.764155 1.322917,-2.645834 0.472564,0.944335 0.882208,1.763623 1.322917,2.645834 1.32334,-2.65e-4 2.646097,-2.65e-4 3.968749,0 -0.440618,-3.968224 -0.881678,-7.937765 -1.322916,-11.90625 -0.881629,-2.65e-4 -1.763625,-2.65e-4 -2.645833,0 -1.323049,2.205257 -2.645569,4.409456 -3.96875,6.614583 -0.881804,-2.65e-4 -1.763626,-2.65e-4 -2.645834,0 0.44137,-2.205789 0.882208,-4.409988 1.322917,-6.614583 -1.32247,-0.441177 -2.645569,-0.882211 -3.96875,-1.322917 z" />
    <path
       transform="translate(112.88872,1.5436905)"
       style="fill:none;stroke:#000000;stroke-width:0.26458332px;stroke-linecap:butt;stroke-linejoin:miter;stroke-opacity:1"
       d="m 72.319615,44.102143 c -0.882038,2.866296 -2.204955,8.157963 -2.204876,11.024478 7.9e-5,2.866514 1.322919,3.307461 2.866269,3.52792 1.54335,0.22046 3.307449,0.22046 4.6303,-0.220579 1.322852,-0.441039 2.204929,-1.323116 2.204928,-2.204796 -10e-7,-0.881679 -0.88221,-1.763889 -1.764022,-2.20486 -0.881811,-0.440972 -1.763757,-0.440972 -2.204861,-1.102761 -0.441104,-0.661789 -0.441104,-1.984309 0.220381,-2.86613 0.661485,-0.881821 1.984666,-1.322882 2.645966,-2.204746 0.661299,-0.881865 0.661299,-2.2051 1.06e-4,-2.866426 -0.661194,-0.661326 -1.984376,-0.661326 -2.425383,-1.323076 -0.441007,-0.661751 -1.24e-4,-1.9844 -0.220424,-2.6457 -0.220301,-0.6613 -1.102458,-0.6613 -1.763982,-0.44088 -0.661524,0.22042 -1.102364,0.661259 -1.984402,3.527556 z"
       id="path831-2"
       inkscape:connector-curvature="0"
       inkscape:path-effect="#path-effect833-35"
       inkscape:original-d="m 72.760416,41.677084 c -1.322652,5.291402 -2.645569,10.583069 -3.96875,15.875 1.323258,0.440732 2.646098,0.881679 3.96875,1.322917 1.763942,-2.65e-4 3.528041,-2.65e-4 5.291666,0 0.882076,-0.882079 1.764155,-1.764155 2.645834,-2.645834 -0.881415,-0.881946 -1.763626,-1.764154 -2.645834,-2.645833 -0.881679,-2.65e-4 -1.763625,-2.65e-4 -2.645833,0 2.65e-4,-1.323578 2.65e-4,-2.646098 0,-3.96875 1.322917,-0.44115 2.646098,-0.882211 3.96875,-1.322917 2.65e-4,-1.322863 2.65e-4,-2.646098 0,-3.96875 -1.322387,-2.64e-4 -2.645569,-2.64e-4 -3.96875,0 0.441325,-1.323448 0.882208,-2.646097 1.322917,-3.96875 -0.881468,-2.64e-4 -1.763625,-2.64e-4 -2.645834,0 -0.44084,0.440839 -0.881679,0.881679 -1.322916,1.322917 z" />
    <path
       transform="translate(125.23577,1.7644635)"
       style="fill:none;stroke:#000000;stroke-width:0.26458332px;stroke-linecap:butt;stroke-linejoin:miter;stroke-opacity:1"
       d="m 72.319615,44.102143 c -0.882038,2.866296 -2.204955,8.157963 -2.204876,11.024478 7.9e-5,2.866514 1.322919,3.307461 2.866269,3.52792 1.54335,0.22046 3.307449,0.22046 4.6303,-0.220579 1.322852,-0.441039 2.204929,-1.323116 2.204928,-2.204796 -10e-7,-0.881679 -0.88221,-1.763889 -1.764022,-2.20486 -0.881811,-0.440972 -1.763757,-0.440972 -2.204861,-1.102761 -0.441104,-0.661789 -0.441104,-1.984309 0.220381,-2.86613 0.661485,-0.881821 1.984666,-1.322882 2.645966,-2.204746 0.661299,-0.881865 0.661299,-2.2051 1.06e-4,-2.866426 -0.661194,-0.661326 -1.984376,-0.661326 -2.425383,-1.323076 -0.441007,-0.661751 -1.24e-4,-1.9844 -0.220424,-2.6457 -0.220301,-0.6613 -1.102458,-0.6613 -1.763982,-0.44088 -0.661524,0.22042 -1.102364,0.661259 -1.984402,3.527556 z"
       id="path831-6-7"
       inkscape:connector-curvature="0"
       inkscape:path-effect="#path-effect833-3-5"
       inkscape:original-d="m 72.760416,41.677084 c -1.322652,5.291402 -2.645569,10.583069 -3.96875,15.875 1.323258,0.440732 2.646098,0.881679 3.96875,1.322917 1.763942,-2.65e-4 3.528041,-2.65e-4 5.291666,0 0.882076,-0.882079 1.764155,-1.764155 2.645834,-2.645834 -0.881415,-0.881946 -1.763626,-1.764154 -2.645834,-2.645833 -0.881679,-2.65e-4 -1.763625,-2.65e-4 -2.645833,0 2.65e-4,-1.323578 2.65e-4,-2.646098 0,-3.96875 1.322917,-0.44115 2.646098,-0.882211 3.96875,-1.322917 2.65e-4,-1.322863 2.65e-4,-2.646098 0,-3.96875 -1.322387,-2.64e-4 -2.645569,-2.64e-4 -3.96875,0 0.441325,-1.323448 0.882208,-2.646097 1.322917,-3.96875 -0.881468,-2.64e-4 -1.763625,-2.64e-4 -2.645834,0 -0.44084,0.440839 -0.881679,0.881679 -1.322916,1.322917 z" />
    <path
       transform="translate(112.88872,1.5436905)"
       style="fill:none;stroke:#000000;stroke-width:0.26458332px;stroke-linecap:butt;stroke-linejoin:miter;stroke-opacity:1"
       d="m 98.116514,49.393938 c -1.102498,1.10227 -1.984442,3.307131 -1.994156,5.056706 -0.0097,1.749574 0.891489,3.101379 2.435095,3.762868 1.543607,0.661489 3.748367,0.661489 3.968947,1.763643 0.22057,1.102154 -1.54353,3.307278 -3.087056,4.189365 -1.543528,0.882086 -2.86627,0.441172 -3.968673,0.441092 -1.102404,-7.9e-5 -1.984243,0.440841 -2.204836,1.102484 -0.220592,0.661643 0.220221,1.543269 1.102351,2.204834 0.88213,0.661565 2.204888,1.102485 3.968724,0.881962 1.76384,-0.220523 3.96897,-1.102575 5.73265,-3.52773 1.76369,-2.425155 3.0868,-6.394477 3.7482,-9.040233 0.66141,-2.645756 0.66141,-3.968776 0.66141,-5.071119 0,-1.102343 0,-1.984464 -0.44068,-2.204962 -0.44069,-0.220499 -1.3229,0.220605 -2.20508,1.323272 -0.88218,1.102667 -1.76381,2.865923 -2.64578,3.748027 -0.88197,0.882104 -1.76376,0.882104 -1.98428,-0.220811 -0.22052,-1.102915 0.22032,-3.307113 -0.22046,-4.409391 -0.44078,-1.102278 -1.763877,-1.102278 -2.866376,-7e-6 z"
       id="path853-0"
       inkscape:connector-curvature="0"
       inkscape:path-effect="#path-effect855-7"
       inkscape:original-d="m 97.895832,48.291667 c -0.881679,2.204596 -1.763625,4.409456 -2.645833,6.614584 1.008348,1.196832 1.764154,2.645568 2.645833,3.96875 2.205228,-2.65e-4 4.409988,-2.65e-4 6.614588,0 -1.76342,2.204331 -3.52752,4.409455 -5.291671,6.614583 -1.322827,-0.441296 -2.645569,-0.882211 -3.96875,-1.322917 -0.881785,0.440759 -1.763625,0.881679 -2.645833,1.322917 0.441396,0.881996 0.882208,1.763622 1.322916,2.645833 1.32334,0.440759 2.646098,0.881679 3.96875,1.322917 2.204858,-0.882105 4.409988,-1.764155 6.614588,-2.645834 1.32299,-3.96844 2.64609,-7.937764 3.96875,-11.906249 2.6e-4,-1.323078 2.6e-4,-2.646098 0,-3.96875 2.6e-4,-0.882034 2.6e-4,-1.764155 0,-2.645834 -0.88142,0.440574 -1.76363,0.881679 -2.64584,1.322917 -0.88199,1.764258 -1.76362,3.527512 -2.64583,5.291667 -0.88184,-2.65e-4 -1.76363,-2.65e-4 -2.64583,0 0.44137,-2.205789 0.8822,-4.409988 1.32291,-6.614584 -1.32247,-2.64e-4 -2.645567,-2.64e-4 -3.968748,0 z" />
    <path
       style="fill:none;stroke:#000000;stroke-width:0.26458332px;stroke-linecap:butt;stroke-linejoin:miter;stroke-opacity:1"
       d="m 33.073076,99.885294 c 2.204914,-4.850874 8.378525,-13.670318 12.347271,-18.961936 3.968746,-5.291618 5.732695,-7.055567 7.937358,-7.937379 2.204662,-0.881812 4.850892,-0.881812 6.614595,4.850131 1.763703,5.731943 2.645736,17.198368 2.645868,23.37198 1.32e-4,6.17361 -0.881792,7.05553 -2.205053,7.05556 -1.323261,3e-5 -3.08662,-0.88165 -3.968618,-2.64578 -0.881998,-1.76413 -0.881998,-4.4098 -3.086506,-5.732585 -2.204508,-1.322785 -6.614671,-1.322785 -9.701561,5.9e-5 -3.08689,1.322846 -4.85067,3.968516 -6.173608,5.291586 -1.322938,1.32307 -2.204781,1.32307 -3.528043,0.88199 -1.323262,-0.44108 -3.086617,-1.32275 -0.881703,-6.173626 z"
       id="path911"
       inkscape:connector-curvature="0"
       inkscape:path-effect="#path-effect913"
       inkscape:original-d="m 29.104166,103.85417 c 6.173875,-8.819714 12.347488,-17.639157 18.520833,-26.458336 1.764094,-1.764094 3.528042,-3.528044 5.291667,-5.291667 2.645701,-2.65e-4 5.291931,-2.65e-4 7.9375,0 0.882121,11.463864 1.764154,22.930289 2.645833,34.395833 -0.881697,0.8817 -1.763625,1.76362 -2.645833,2.64583 -1.764154,-0.88247 -3.527512,-1.76415 -5.291667,-2.64583 2.65e-4,-2.64626 2.65e-4,-5.29193 0,-7.9375 -4.409016,-2.65e-4 -8.819179,-2.65e-4 -13.229166,0 -1.763731,2.64573 -3.527512,5.2914 -5.291667,7.9375 -0.881782,-2.6e-4 -1.763625,-2.6e-4 -2.645833,0 -1.764154,-0.88248 -3.527512,-1.76415 -5.291667,-2.64583 z"
       transform="translate(3.0866744,1.3230495)" />
    <path
       style="fill:none;stroke:#000000;stroke-width:0.26458332px;stroke-linecap:butt;stroke-linejoin:miter;stroke-opacity:1"
       d="m 52.475826,84.010284 c 1.322731,0.440998 2.204676,2.204888 2.204808,3.527752 1.33e-4,1.322863 -0.881759,2.204754 -2.20494,2.645859 -1.323182,0.441105 -3.08654,0.441105 -3.968618,-0.441105 -0.882077,-0.882209 -0.882077,-2.645834 -1.05e-4,-3.968631 0.881972,-1.322797 2.646123,-2.204873 3.968855,-1.763875 z"
       id="path915"
       inkscape:connector-curvature="0"
       inkscape:path-effect="#path-effect917"
       inkscape:original-d="m 52.916666,82.6875 c 0.882208,1.763623 1.764154,3.527513 2.645833,5.291667 -0.881732,0.881732 -1.763625,1.763622 -2.645833,2.645833 -1.764154,-2.64e-4 -3.527512,-2.64e-4 -5.291667,0 2.65e-4,-1.764419 2.65e-4,-3.528044 0,-5.291666 1.76389,-0.882079 3.528042,-1.764155 5.291667,-2.645834 z"
       transform="translate(3.0866744,1.3230495)" />
    <path
       style="fill:none;stroke:#000000;stroke-width:0.26458332px;stroke-linecap:butt;stroke-linejoin:miter;stroke-opacity:1"
       d="m 76.288485,96.357586 c -2.204835,0.44092 -4.850667,1.322864 -6.614716,3.086807 -1.764049,1.763947 -2.645886,4.409457 -1.763757,6.173577 0.882129,1.76413 3.527645,2.64597 5.719934,2.65219 2.192289,0.006 3.981481,-0.88837 5.304159,-0.88838 1.322679,0 2.204782,0.88211 3.527832,1.32308 1.32305,0.44097 3.086937,0.44097 5.29151,-4.40915 2.204574,-4.850125 4.850804,-14.55297 5.291895,-19.403506 0.44109,-4.850537 -1.322855,-4.850537 -3.527968,-2.204467 -2.205112,2.64607 -4.85055,7.936946 -7.055411,10.582938 -2.204862,2.645992 -3.968643,2.645992 -6.173478,3.086911 z"
       id="path919"
       inkscape:connector-curvature="0"
       inkscape:path-effect="#path-effect921"
       inkscape:original-d="m 76.729166,95.916667 c -2.645569,0.881679 -5.291402,1.763622 -7.9375,2.645833 -0.881785,2.64589 -1.763625,5.2914 -2.645834,7.9375 2.646416,0.88178 5.291932,1.76362 7.9375,2.64583 1.890033,-0.56719 3.528042,-1.76415 5.291667,-2.64583 0.882049,0.88152 1.764154,1.76362 2.645833,2.64583 1.764155,-2.6e-4 3.528042,-2.6e-4 5.291667,0 2.645701,-9.700196 5.291931,-19.403041 7.9375,-29.104163 -1.763567,-2.65e-4 -3.527512,-2.65e-4 -5.291667,0 -2.645965,5.292193 -5.291402,10.583069 -7.9375,15.875 -1.763731,-2.65e-4 -3.527512,-2.65e-4 -5.291666,0 z" />
    <path
       style="fill:none;stroke:#000000;stroke-width:0.26458332px;stroke-linecap:butt;stroke-linejoin:miter;stroke-opacity:1"
       d="m 73.201654,102.97209 c 10e-7,-0.88208 1.76389,-2.64597 3.086607,-3.086873 1.322717,-0.440906 2.204793,0.441173 2.204926,1.322983 1.34e-4,0.88181 -0.881813,1.76376 -2.204995,2.20486 -1.323181,0.44111 -3.086539,0.44111 -3.086538,-0.44097 z"
       id="path923"
       inkscape:connector-curvature="0"
       inkscape:path-effect="#path-effect925"
       inkscape:original-d="m 71.437499,103.85417 c 1.764154,-1.76416 3.528042,-3.52805 5.291667,-5.29167 0.882076,0.881547 1.764154,1.76362 2.645833,2.64583 -0.881679,0.88168 -1.763625,1.76363 -2.645833,2.64584 -1.764155,-2.7e-4 -3.527513,-2.7e-4 -5.291667,0 z" />
    <path
       style="fill:none;stroke:#000000;stroke-width:0.26458332px;stroke-linecap:butt;stroke-linejoin:miter;stroke-opacity:1"
       d="m 93.486243,97.680423 c -0.882077,1.763756 -0.882077,5.291537 -0.441071,7.496567 0.441007,2.20502 1.322882,3.0869 2.645932,3.52787 1.323049,0.44097 3.086936,0.44097 5.732486,-1.7637 2.64556,-2.20468 6.17387,-6.61507 6.61494,-8.819779 0.44107,-2.204714 -2.20493,-2.204714 -4.40991,-0.881819 -2.20498,1.322895 -3.968695,3.968468 -4.850741,3.968328 -0.882047,-1.3e-4 -0.882047,-2.645655 -1.763771,-3.968439 -0.881724,-1.322784 -2.645788,-1.322784 -3.527865,0.440972 z"
       id="path927"
       inkscape:connector-curvature="0"
       inkscape:path-effect="#path-effect929"
       inkscape:original-d="m 92.604166,95.916667 c 2.64e-4,3.527512 2.64e-4,7.055293 0,10.583333 0.882274,0.88175 1.764154,1.76362 2.645833,2.64583 1.764154,-2.6e-4 3.528041,-2.6e-4 5.291671,0 3.52751,-4.40932 7.05582,-8.81971 10.58333,-13.229163 -2.6454,-2.65e-4 -5.2914,-2.65e-4 -7.9375,0 -1.7638,2.64583 -3.527514,5.291403 -5.291668,7.937503 2.65e-4,-2.64641 2.65e-4,-5.291935 0,-7.937503 -1.763448,-2.65e-4 -3.527512,-2.65e-4 -5.291666,0 z" />
    <path
       style="fill:none;stroke:#000000;stroke-width:0.26458332px;stroke-linecap:butt;stroke-linejoin:miter;stroke-opacity:1"
       d="m 116.4169,97.239507 c -2.64576,0.440844 -5.2916,2.204736 -6.61466,3.968693 -1.32307,1.76396 -1.32307,3.52765 -0.44094,4.85079 0.88212,1.32314 2.64575,2.20495 5.29158,2.20491 2.64583,-4e-5 6.17382,-0.88203 7.93755,-1.76403 1.76374,-0.882 1.76374,-1.76402 1.3229,-2.6457 -0.44085,-0.88169 -1.32306,-1.7639 -2.64581,-1.76397 -1.32276,-8e-5 -3.08665,0.88187 -2.64544,0.44071 0.44121,-0.44115 3.08656,-2.20472 3.08664,-3.527463 7e-5,-1.322739 -2.64607,-2.204785 -5.29182,-1.76394 z"
       id="path931"
       inkscape:connector-curvature="0"
       inkscape:path-effect="#path-effect933"
       inkscape:original-d="m 116.41667,95.916667 c -2.64557,1.763622 -5.29141,3.527512 -7.9375,5.291663 2.6e-4,1.76383 2.6e-4,3.52752 0,5.29167 1.76441,0.88181 3.52804,1.76362 5.29166,2.64583 3.52783,-0.88215 7.05582,-1.76415 10.58334,-2.64583 2.6e-4,-0.88213 2.6e-4,-1.76415 0,-2.64583 -0.88142,-0.88195 -1.76363,-1.76416 -2.64584,-2.64584 -1.76362,0.88168 -3.52751,1.76363 -5.29166,2.64584 2.64657,-1.76448 5.29193,-3.52805 7.9375,-5.29167 -2.64527,-0.882108 -5.29141,-1.764154 -7.9375,-2.645833 z" />
    <path
       style="fill:none;stroke:#000000;stroke-width:0.26458332px;stroke-linecap:butt;stroke-linejoin:miter;stroke-opacity:1"
       d="m 113.10951,103.19258 c -0.66159,-0.66159 -0.66159,-1.98451 -1.3e-4,-2.64584 0.66145,-0.661323 1.98463,-0.661323 2.64596,-1.3e-4 0.66133,0.66119 0.66133,1.98438 -1.3e-4,2.64597 -0.66146,0.66159 -1.98411,0.66159 -2.6457,0 z"
       id="path935"
       inkscape:connector-curvature="0"
       inkscape:path-effect="#path-effect937"
       inkscape:original-d="m 112.44792,103.85417 c 2.6e-4,-1.32318 2.6e-4,-2.6461 0,-3.968753 1.32291,-2.65e-4 2.64609,-2.65e-4 3.96875,0 2.6e-4,1.322383 2.6e-4,2.645573 0,3.968753 -1.32292,-2.7e-4 -2.64557,-2.7e-4 -3.96875,0 z" />
    <path
       style="fill:none;stroke:#000000;stroke-width:0.26458332px;stroke-linecap:butt;stroke-linejoin:miter;stroke-opacity:1"
       d="m 127.00017,97.6804 c -0.88204,1.763733 -1.76398,5.29152 -1.32283,7.05556 0.44114,1.76404 2.20487,1.76404 3.08668,0.88209 0.88181,-0.88194 0.88181,-2.64609 1.76362,-2.64609 0.88181,0 2.64597,1.76415 4.03202,2.142 1.38604,0.37784 2.14199,-0.37811 3.02372,-2.14163 0.88174,-1.76352 1.76394,-4.41015 1.32316,-5.732907 -0.44079,-1.322756 -2.20489,-1.322756 -3.52792,-0.44084 -1.32304,0.881916 -2.20486,2.645543 -3.08698,2.645492 -0.88213,-5.2e-5 -1.76392,-1.763626 -2.64567,-2.645517 -0.88176,-0.881891 -1.76376,-0.881891 -2.6458,0.881842 z"
       id="path939"
       inkscape:connector-curvature="0"
       inkscape:path-effect="#path-effect941"
       inkscape:original-d="m 127,95.916667 c -0.88168,3.527512 -1.76363,7.055293 -2.64583,10.583333 1.76431,-2.6e-4 3.52804,-2.6e-4 5.29166,0 2.7e-4,-1.76389 2.7e-4,-3.52804 0,-5.29167 1.76389,1.76336 3.52804,3.52752 5.29167,5.29167 1.19719,-0.81921 1.76415,-1.76415 2.64583,-2.64583 0.88195,-2.64531 1.76416,-5.291935 2.64583,-7.937503 -1.76341,-2.65e-4 -3.52751,-2.65e-4 -5.29166,0 -0.88181,1.763887 -1.76363,3.527512 -2.64584,5.291663 -0.88183,-1.764468 -1.76362,-3.528041 -2.64583,-5.291663 -0.88162,-2.65e-4 -1.76362,-2.65e-4 -2.64583,0 z" />
    <path
       transform="translate(70.555385,46.522857)"
       style="fill:none;stroke:#000000;stroke-width:0.26458332px;stroke-linecap:butt;stroke-linejoin:miter;stroke-opacity:1"
       d="m 72.319615,44.102143 c -0.882038,2.866296 -2.204955,8.157963 -2.204876,11.024478 7.9e-5,2.866514 1.322919,3.307461 2.866269,3.52792 1.54335,0.22046 3.307449,0.22046 4.6303,-0.220579 1.322852,-0.441039 2.204929,-1.323116 2.204928,-2.204796 -10e-7,-0.881679 -0.88221,-1.763889 -1.764022,-2.20486 -0.881811,-0.440972 -1.763757,-0.440972 -2.204861,-1.102761 -0.441104,-0.661789 -0.441104,-1.984309 0.220381,-2.86613 0.661485,-0.881821 1.984666,-1.322882 2.645966,-2.204746 0.661299,-0.881865 0.661299,-2.2051 1.06e-4,-2.866426 -0.661194,-0.661326 -1.984376,-0.661326 -2.425383,-1.323076 -0.441007,-0.661751 -1.24e-4,-1.9844 -0.220424,-2.6457 -0.220301,-0.6613 -1.102458,-0.6613 -1.763982,-0.44088 -0.661524,0.22042 -1.102364,0.661259 -1.984402,3.527556 z"
       id="path831-3"
       inkscape:connector-curvature="0"
       inkscape:path-effect="#path-effect833-9"
       inkscape:original-d="m 72.760416,41.677084 c -1.322652,5.291402 -2.645569,10.583069 -3.96875,15.875 1.323258,0.440732 2.646098,0.881679 3.96875,1.322917 1.763942,-2.65e-4 3.528041,-2.65e-4 5.291666,0 0.882076,-0.882079 1.764155,-1.764155 2.645834,-2.645834 -0.881415,-0.881946 -1.763626,-1.764154 -2.645834,-2.645833 -0.881679,-2.65e-4 -1.763625,-2.65e-4 -2.645833,0 2.65e-4,-1.323578 2.65e-4,-2.646098 0,-3.96875 1.322917,-0.44115 2.646098,-0.882211 3.96875,-1.322917 2.65e-4,-1.322863 2.65e-4,-2.646098 0,-3.96875 -1.322387,-2.64e-4 -2.645569,-2.64e-4 -3.96875,0 0.441325,-1.323448 0.882208,-2.646097 1.322917,-3.96875 -0.881468,-2.64e-4 -1.763625,-2.64e-4 -2.645834,0 -0.44084,0.440839 -0.881679,0.881679 -1.322916,1.322917 z" />
    <path
       transform="translate(101.86445,46.963675)"
       style="fill:none;stroke:#000000;stroke-width:0.26458332px;stroke-linecap:butt;stroke-linejoin:miter;stroke-opacity:1"
       d="m 52.916805,47.630075 c -1.322936,1.543217 -2.645852,5.070994 -2.645822,7.276075 2.9e-5,2.205081 1.322827,3.086947 3.086767,3.527899 1.76394,0.440952 3.968904,0.440952 5.291741,-1.27e-4 1.322837,-0.441079 1.763862,-1.323128 2.220392,-1.291695 0.45653,0.03143 0.866174,0.850722 1.748357,1.291748 0.882183,0.441026 2.20494,0.441026 2.645811,-1.54307 0.440871,-1.984096 -1.89e-4,-5.953637 -0.661476,-7.937895 -0.661288,-1.984259 -1.543284,-1.984259 -2.645951,-0.881654 -1.102667,1.102606 -2.425187,3.306805 -3.527641,4.409391 -1.102454,1.102587 -1.984276,1.102587 -2.204797,-3.28e-4 -0.220521,-1.102915 0.220319,-3.307113 -0.220514,-4.62982 -0.440832,-1.322707 -1.763931,-1.76374 -3.086867,-0.220524 z"
       id="path827-6"
       inkscape:connector-curvature="0"
       inkscape:path-effect="#path-effect829-60"
       inkscape:original-d="m 52.916666,45.645834 c -1.322652,3.527512 -2.645569,7.055289 -3.96875,10.583333 1.3233,0.881759 2.646098,1.763623 3.96875,2.645834 2.205024,-2.65e-4 4.409988,-2.65e-4 6.614583,0 0.441185,-0.882105 0.882208,-1.764155 1.322917,-2.645834 0.472564,0.944335 0.882208,1.763623 1.322917,2.645834 1.32334,-2.65e-4 2.646097,-2.65e-4 3.968749,0 -0.440618,-3.968224 -0.881678,-7.937765 -1.322916,-11.90625 -0.881629,-2.65e-4 -1.763625,-2.65e-4 -2.645833,0 -1.323049,2.205257 -2.645569,4.409456 -3.96875,6.614583 -0.881804,-2.65e-4 -1.763626,-2.65e-4 -2.645834,0 0.44137,-2.205789 0.882208,-4.409988 1.322917,-6.614583 -1.32247,-0.441177 -2.645569,-0.882211 -3.96875,-1.322917 z" />
    <path
       transform="translate(74.083102,-2.6457566)"
       style="fill:none;stroke:#000000;stroke-width:0.26458332px;stroke-linecap:butt;stroke-linejoin:miter;stroke-opacity:1"
       d="m 116.4169,97.239507 c -2.64576,0.440844 -5.2916,2.204736 -6.61466,3.968693 -1.32307,1.76396 -1.32307,3.52765 -0.44094,4.85079 0.88212,1.32314 2.64575,2.20495 5.29158,2.20491 2.64583,-4e-5 6.17382,-0.88203 7.93755,-1.76403 1.76374,-0.882 1.76374,-1.76402 1.3229,-2.6457 -0.44085,-0.88169 -1.32306,-1.7639 -2.64581,-1.76397 -1.32276,-8e-5 -3.08665,0.88187 -2.64544,0.44071 0.44121,-0.44115 3.08656,-2.20472 3.08664,-3.527463 7e-5,-1.322739 -2.64607,-2.204785 -5.29182,-1.76394 z"
       id="path931-6"
       inkscape:connector-curvature="0"
       inkscape:path-effect="#path-effect933-2"
       inkscape:original-d="m 116.41667,95.916667 c -2.64557,1.763622 -5.29141,3.527512 -7.9375,5.291663 2.6e-4,1.76383 2.6e-4,3.52752 0,5.29167 1.76441,0.88181 3.52804,1.76362 5.29166,2.64583 3.52783,-0.88215 7.05582,-1.76415 10.58334,-2.64583 2.6e-4,-0.88213 2.6e-4,-1.76415 0,-2.64583 -0.88142,-0.88195 -1.76363,-1.76416 -2.64584,-2.64584 -1.76362,0.88168 -3.52751,1.76363 -5.29166,2.64584 2.64657,-1.76448 5.29193,-3.52805 7.9375,-5.29167 -2.64527,-0.882108 -5.29141,-1.764154 -7.9375,-2.645833 z" />
    <path
       transform="translate(73.42174,-1.9842466)"
       style="fill:none;stroke:#000000;stroke-width:0.26458332px;stroke-linecap:butt;stroke-linejoin:miter;stroke-opacity:1"
       d="m 113.10951,103.19258 c -0.66159,-0.66159 -0.66159,-1.98451 -1.3e-4,-2.64584 0.66145,-0.661323 1.98463,-0.661323 2.64596,-1.3e-4 0.66133,0.66119 0.66133,1.98438 -1.3e-4,2.64597 -0.66146,0.66159 -1.98411,0.66159 -2.6457,0 z"
       id="path935-8"
       inkscape:connector-curvature="0"
       inkscape:path-effect="#path-effect937-1"
       inkscape:original-d="m 112.44792,103.85417 c 2.6e-4,-1.32318 2.6e-4,-2.6461 0,-3.968753 1.32291,-2.65e-4 2.64609,-2.65e-4 3.96875,0 2.6e-4,1.322383 2.6e-4,2.645573 0,3.968753 -1.32292,-2.7e-4 -2.64557,-2.7e-4 -3.96875,0 z" />
    <path
       style="fill:none;stroke:#000000;stroke-width:0.26458332px;stroke-linecap:butt;stroke-linejoin:miter;stroke-opacity:1"
       d="m 171.9793,95.475563 c -1.32295,1.763702 -2.64587,5.732447 -2.42523,7.716987 0.22064,1.98453 1.98439,1.98453 3.30717,0.88211 1.32278,-1.10243 2.20485,-3.30762 3.74817,-4.409889 1.54331,-1.102271 3.74849,-1.102271 4.85079,-1.763782 1.1023,-0.661511 1.1023,-1.984587 0.66147,-2.86633 -0.44084,-0.881742 -1.32296,-1.322802 -2.42536,-1.322854 -1.10241,-5.3e-5 -2.42516,0.440864 -3.74832,0.440892 -1.32316,2.8e-5 -2.64575,-0.440836 -3.96869,1.322866 z"
       id="path1015"
       inkscape:connector-curvature="0"
       inkscape:path-effect="#path-effect1017"
       inkscape:original-d="m 171.97916,93.270833 c -1.32265,3.968486 -2.64556,7.937237 -3.96875,11.906247 1.7643,-2.6e-4 3.52805,-2.6e-4 5.29167,0 0.88208,-2.20479 1.76416,-4.40998 2.64583,-6.61458 2.20481,-2.65e-4 4.40999,-2.65e-4 6.61459,0 2.6e-4,-1.323022 2.6e-4,-2.646098 0,-3.96875 -0.88151,-0.44115 -1.76363,-0.882211 -2.64584,-1.322917 -1.32281,0.440759 -2.64556,0.881679 -3.96875,1.322917 -1.32297,-0.441343 -2.64556,-0.882211 -3.96875,-1.322917 z" />
    <path
       style="fill:#ffff00;fill-opacity:0.30882353;stroke:#d3d3d3;stroke-width:0.17885263;stroke-miterlimit:4;stroke-dasharray:none;stroke-dashoffset:0;stroke-opacity:1"
       d="m 146.3101,222.91162 c -3.27308,-1.55643 -6.20734,-8.3731 -10.15967,-23.60225 -1.09327,-4.2126 -2.42463,-9.8408 -4.75214,-20.08928 -3.9702,-17.48152 -5.06085,-21.61087 -6.46156,-24.46429 -0.64447,-1.31284 -1.11891,-1.8384 -1.83108,-2.02831 -1.27028,-0.33874 -2.40011,0.72641 -3.80266,3.58498 -1.23924,2.5257 -2.37014,5.42029 -6.08942,15.58619 -4.05777,11.09109 -5.90538,15.9812 -7.79906,20.64203 -6.324441,15.56602 -11.207676,23.73087 -15.465471,25.85852 -1.99222,0.99552 -3.276513,0.64002 -4.388253,-1.21469 -0.839464,-1.40047 -1.165937,-3.04708 -1.26046,-6.35729 -0.156809,-5.49152 0.972528,-12.17795 3.826563,-22.65581 5.619116,-20.62915 18.573651,-54.3826 25.075101,-65.33394 2.87975,-4.8508 5.04006,-6.78116 8.1668,-7.29753 4.25663,-0.70297 8.05637,2.40819 11.43902,9.36607 2.90081,5.96675 5.47051,14.16648 9.94219,31.72478 4.6777,18.36725 5.59709,21.73129 6.7105,24.55357 1.04072,2.63802 2.2038,4.01551 3.39192,4.01719 0.25899,3.6e-4 0.86025,-0.26049 1.33614,-0.57969 1.82235,-1.22232 4.06326,-5.26435 10.51875,-18.97321 11.37672,-24.15956 16.34979,-33.04027 21.0042,-37.50842 2.28452,-2.1931 3.7139,-2.72326 4.66517,-1.73035 1.77382,1.85148 1.20856,8.58259 -1.50315,17.89948 -5.0142,17.22779 -19.29162,49.40426 -29.39661,66.25 -5.81081,9.68704 -10.17054,13.77705 -13.16682,12.35225 z"
       id="path1019"
       inkscape:connector-curvature="0"
       transform="scale(0.26458333)" />
    <path
       style="fill:#ffff00;fill-opacity:0.28921569;stroke:#d3d3d3;stroke-width:0.17885263;stroke-miterlimit:4;stroke-dasharray:none;stroke-dashoffset:0;stroke-opacity:1"
       d="m 207.92973,221.33101 c -1.80888,-0.18541 -4.59809,-0.68319 -6.33928,-1.13135 -5.01361,-1.29042 -8.0907,-3.36667 -9.6559,-6.51529 -0.88196,-1.77418 -1.15081,-2.91265 -1.26507,-5.35714 -0.3235,-6.92066 3.35868,-18.51961 8.15739,-25.69593 2.50268,-3.74268 5.01632,-5.64336 7.46333,-5.64336 2.52896,0 4.1286,1.56499 5.07986,4.96981 0.36235,1.29695 0.38319,1.76667 0.39352,8.86948 0.0119,8.19989 0.0406,8.45423 1.11591,9.88128 1.38265,1.83497 3.79792,1.71043 6.51603,-0.33599 1.93182,-1.45443 3.66506,-3.46968 8.36314,-9.72386 2.43466,-3.24107 4.97647,-6.50462 5.64848,-7.25232 3.74128,-4.16274 6.09013,-4.91729 8.01078,-2.5734 2.75659,3.36406 4.99302,13.98296 5.21156,24.7453 0.16088,7.92293 -0.5545,11.5887 -2.71158,13.8948 -1.18975,1.27193 -2.27367,1.69377 -4.10463,1.59742 -2.13755,-0.11247 -3.54972,-0.85132 -6.16925,-3.22774 -3.47922,-3.15634 -3.61365,-3.16508 -7.05357,-0.45832 -3.95875,3.115 -7.57095,4.11024 -14.69665,4.04925 -1.83649,-0.0157 -3.62032,-0.0574 -3.96407,-0.0926 z"
       id="path1021"
       inkscape:connector-curvature="0"
       transform="scale(0.26458333)" />
    <path
       style="fill:#ffff00;fill-opacity:0.30882353;stroke:#d3d3d3;stroke-width:0.12646791;stroke-miterlimit:4;stroke-dasharray:none;stroke-dashoffset:0;stroke-opacity:1"
       d="m 280.97649,221.62228 c -4.07017,-0.18947 -8.19914,-0.91717 -10.10153,-1.78033 -4.76982,-2.16417 -6.16906,-7.61168 -4.7908,-18.65152 1.15283,-9.23416 4.35471,-23.24387 7.99382,-34.97662 1.90031,-6.12673 3.40631,-9.53732 4.87897,-11.04925 1.79279,-1.84059 5.85647,-2.34152 7.36568,-0.90796 0.78282,0.74357 0.78156,0.73533 0.74029,4.84047 -0.0498,4.955 0.13466,5.77734 1.58242,7.0545 0.77548,0.6841 1.55308,1.06905 3.91124,1.93627 3.40583,1.25249 4.62432,2.05829 5.44729,3.60233 1.2492,2.34375 0.96893,5.9279 -0.65481,8.37361 -0.95411,1.43712 -2.14745,2.42917 -6.64067,5.52057 -4.05992,2.79329 -5.71512,5.68912 -5.70843,9.9871 0.004,2.46275 0.63213,4.29772 1.90309,5.55805 0.92172,0.91402 1.75025,1.33282 4.49064,2.26994 3.14831,1.0766 4.33452,1.6833 6.15585,3.14849 1.2009,0.96608 2.34019,2.36629 2.96425,3.64313 0.45928,0.9397 0.47635,1.02236 0.47635,2.307 0,1.28093 -0.018,1.36871 -0.46528,2.27379 -1.00315,2.02974 -3.24823,3.87691 -6.19428,5.09643 -3.31041,1.37035 -8.09521,1.99881 -13.35409,1.754 z"
       id="path1023"
       inkscape:connector-curvature="0"
       transform="scale(0.26458333)" />
    <path
       style="fill:#ffff00;fill-opacity:0.30882353;stroke:#d3d3d3;stroke-width:0.12646791;stroke-miterlimit:4;stroke-dasharray:none;stroke-dashoffset:0;stroke-opacity:1"
       d="m 325.67574,222.33477 c -5.70793,-0.53254 -8.68402,-1.46113 -10.46833,-3.26629 -2.10807,-2.13272 -2.93276,-4.96452 -2.92574,-10.04636 0.009,-6.58584 1.64986,-16.32943 4.95478,-29.42371 2.87813,-11.40332 5.5731,-19.49088 7.48953,-22.47589 1.25647,-1.95706 3.36125,-2.94816 5.9792,-2.81549 1.22936,0.0623 1.91844,0.336 2.45683,0.97584 0.6681,0.79399 0.71061,1.23538 0.5906,6.1328 -0.0439,1.79252 -0.0145,2.5747 0.11634,3.09359 0.54868,2.17586 1.7091,3.12989 5.38071,4.42369 3.26632,1.15098 4.69437,2.11814 5.47808,3.71009 1.30686,2.6546 0.83981,6.21513 -1.16231,8.86084 -0.72451,0.95743 -1.85725,1.90859 -4.16354,3.49613 -4.60912,3.1727 -5.73452,4.265 -6.78796,6.58829 -0.67834,1.49606 -0.92238,2.72535 -0.9286,4.67763 -0.006,1.94579 0.16049,2.81882 0.79557,4.16688 0.83305,1.76829 2.00138,2.57666 5.3798,3.72226 3.69579,1.25321 5.53622,2.29722 7.40322,4.19956 3.11414,3.1731 3.29249,6.26372 0.53043,9.19165 -2.2096,2.34228 -5.72426,3.90011 -10.42069,4.61881 -1.53345,0.23467 -7.82205,0.3447 -9.69792,0.16968 z"
       id="path1025"
       inkscape:connector-curvature="0"
       transform="scale(0.26458333)" />
    <path
       style="fill:#ffff00;fill-opacity:0.30882353;stroke:#d3d3d3;stroke-width:0.12646791;stroke-miterlimit:4;stroke-dasharray:none;stroke-dashoffset:0;stroke-opacity:1"
       d="m 366.19991,259.58495 c -4.39507,-0.41643 -8.22395,-2.1259 -10.81904,-4.83036 -1.70357,-1.77537 -2.48094,-3.34429 -2.48419,-5.01371 -0.002,-1.16555 0.32957,-1.94105 1.19178,-2.78512 1.6383,-1.60385 4.64598,-2.38706 8.19895,-2.13506 0.79764,0.0566 2.3563,0.17014 3.46369,0.25236 6.2897,0.46699 10.70842,-1.3166 15.80297,-6.37877 5.02335,-4.99142 7.53295,-10.24286 6.19844,-12.97049 -0.66576,-1.36077 -2.23032,-2.423 -4.75881,-3.23091 -0.65976,-0.21081 -2.58406,-0.7333 -4.27624,-1.16108 -4.61478,-1.16663 -6.55573,-1.89705 -8.52536,-3.20826 -5.76694,-3.83916 -7.62586,-10.3733 -5.37057,-18.87769 1.44105,-5.43402 4.44529,-10.69136 7.48125,-13.09202 3.55663,-2.81236 7.22164,-2.65654 8.65885,0.36814 0.79661,1.6765 0.83622,2.12544 0.79812,9.0459 -0.0357,6.47824 0.0214,7.53392 0.48127,8.90554 0.97169,2.89806 3.70712,3.48185 6.59991,1.40855 0.43004,-0.30822 1.19243,-0.97852 1.6942,-1.48955 1.56354,-1.59243 2.59767,-3.03222 6.1481,-8.5599 1.06911,-1.6645 2.43512,-3.687 3.03557,-4.49445 2.65797,-3.57424 5.5941,-5.87795 7.54126,-5.91692 0.62902,-0.0126 0.76415,0.0306 1.09919,0.35107 0.90683,0.8675 1.0662,2.26629 0.99143,8.70187 -0.0424,3.6483 -0.11802,5.55401 -0.26905,6.77947 -1.21312,9.84298 -5.22111,23.49388 -10.0098,34.09265 -4.96288,10.98428 -10.51032,17.50003 -18.10639,21.26687 -4.5838,2.27308 -10.20333,3.40412 -14.76553,2.97187 z"
       id="path1027"
       inkscape:connector-curvature="0"
       transform="scale(0.26458333)" />
    <path
       style="fill:#ffff00;fill-opacity:0.30882353;stroke:#d3d3d3;stroke-width:0.12646791;stroke-miterlimit:4;stroke-dasharray:none;stroke-dashoffset:0;stroke-opacity:1"
       d="m 424.63038,186.03993 c -1.00211,-0.25445 -2.25775,-1.31711 -3.06239,-2.59175 -2.04427,-3.23834 -3.88698,-10.06233 -3.69001,-13.66496 0.10255,-1.87546 0.48596,-2.10491 1.82777,-1.09385 3.0686,2.31222 6.99242,9.76391 7.4166,14.0848 0.23215,2.36487 -0.78583,3.69896 -2.49197,3.26576 z"
       id="path1029"
       inkscape:connector-curvature="0"
       transform="scale(0.26458333)" />
    <path
       style="fill:#ffff00;fill-opacity:0.30882353;stroke:#d3d3d3;stroke-width:0.12646791;stroke-miterlimit:4;stroke-dasharray:none;stroke-dashoffset:0;stroke-opacity:1"
       d="m 428.3577,227.70993 c -2.27649,-0.64151 -3.71099,-2.23738 -3.71099,-4.12842 0,-1.6787 0.68542,-2.76157 4.10966,-6.4927 2.21717,-2.41586 2.72126,-3.24634 2.72342,-4.48673 0.002,-0.91311 -0.19977,-1.46484 -1.18828,-3.25607 -1.05786,-1.91691 -1.33587,-2.83836 -1.33587,-4.42776 0,-4.68914 4.02944,-11.22951 8.58951,-13.94204 3.9504,-2.34987 8.91791,-2.81299 13.13638,-1.22472 3.92284,1.47697 6.8102,6.0033 5.86337,9.19163 -0.36198,1.21894 -1.42166,1.97632 -4.29262,3.06805 -3.52092,1.3389 -4.69582,2.3998 -5.10409,4.60883 -0.077,0.41668 -0.19542,1.72357 -0.26312,2.90418 -0.18828,3.28325 -0.39146,4.61919 -0.9541,6.27343 -1.57773,4.63873 -7.41773,9.90257 -12.93472,11.65864 -1.34454,0.42797 -3.58523,0.55051 -4.63855,0.25368 z"
       id="path1031"
       inkscape:connector-curvature="0"
       transform="scale(0.26458333)" />
    <path
       style="fill:#ffff00;fill-opacity:0.30882353;stroke:#d3d3d3;stroke-width:0.12646791;stroke-miterlimit:4;stroke-dasharray:none;stroke-dashoffset:0;stroke-opacity:1"
       d="m 572.93844,228.78901 c -1.25849,-0.58937 -2.78657,-2.48132 -4.03547,-4.99642 -2.97812,-5.99751 -5.64587,-15.62023 -11.44701,-41.28999 -3.23197,-14.30132 -4.53553,-19.18108 -5.84089,-21.86488 -1.12445,-2.31184 -2.49728,-2.78499 -3.85842,-1.32983 -1.39358,1.48985 -2.89065,4.86232 -6.28864,14.16647 -6.48682,17.76181 -8.50782,23.04755 -11.29728,29.54697 -5.51761,12.85602 -9.76723,19.45291 -13.75518,21.35285 -1.37464,0.6549 -2.4304,0.59869 -3.3154,-0.17653 -1.49048,-1.30558 -2.1838,-3.94921 -2.18517,-8.33204 -0.002,-6.29361 1.61403,-14.49085 5.32011,-26.98642 5.99162,-20.20161 17.29738,-49.2511 23.09702,-59.34646 3.55466,-6.18755 5.9869,-8.22836 9.84165,-8.25779 5.10888,-0.039 9.24144,5.16313 13.30956,16.75425 2.14873,6.1223 3.99834,12.72438 8.09753,28.90378 3.94134,15.55639 4.88602,18.83594 6.2034,21.53576 1.49411,3.06204 3.28022,3.32267 5.30703,0.77442 1.76771,-2.22249 3.62544,-5.81313 9.92237,-19.17805 7.86295,-16.68874 11.90075,-24.47432 15.70739,-30.2866 3.36786,-5.14233 6.30273,-7.98963 8.27216,-8.02534 0.48706,-0.009 0.65797,0.0531 0.96942,0.35136 1.88705,1.80706 1.42579,8.22807 -1.26202,17.56813 -4.43231,15.40215 -16.12267,42.54647 -26.34753,61.17736 -5.61538,10.23187 -9.84156,15.92482 -13.09296,17.63709 -0.74225,0.39089 -1.03278,0.47185 -1.8309,0.5102 -0.75393,0.0362 -1.05993,-0.007 -1.49077,-0.20829 z"
       id="path1033"
       inkscape:connector-curvature="0"
       transform="scale(0.26458333)" />
    <path
       style="fill:#ffff00;fill-opacity:0.30882353;stroke:#d3d3d3;stroke-width:0.12646791;stroke-miterlimit:4;stroke-dasharray:none;stroke-dashoffset:0;stroke-opacity:1"
       d="m 635.49689,227.25496 c -4.35822,-0.35947 -8.52886,-1.31115 -11.31981,-2.58303 -2.15736,-0.98313 -4.2752,-2.77286 -5.25059,-4.43711 -1.35524,-2.31236 -1.91301,-5.27904 -1.62203,-8.6272 0.79198,-9.11274 5.77882,-21.41779 10.65684,-26.29581 2.94912,-2.94912 6.06257,-3.39335 8.2292,-1.17416 0.79409,0.81336 1.47456,2.11551 1.81795,3.47885 0.47256,1.87615 0.54671,3.40146 0.45425,9.34391 -0.0926,5.95027 -0.0301,7.10235 0.45603,8.40152 0.32989,0.88171 0.87825,1.61746 1.52403,2.04481 0.47982,0.31754 0.63369,0.34968 1.67403,0.34968 1.02424,0 1.235,-0.0423 1.98883,-0.39947 1.853,-0.87788 3.55299,-2.33885 5.69239,-4.89206 0.70026,-0.83569 2.93322,-3.74275 4.96216,-6.46014 3.90325,-5.22769 5.3434,-6.99335 6.92362,-8.4885 3.31354,-3.13518 5.52859,-2.92379 7.43592,0.70965 1.6983,3.23525 3.1623,9.72187 3.96621,17.57335 0.17568,1.71576 0.2264,3.3105 0.2269,7.1342 6.3e-4,4.59951 -0.0186,5.03147 -0.29182,6.54548 -0.34779,1.92754 -0.75563,3.2328 -1.3834,4.42745 -1.54467,2.93952 -4.51771,3.87432 -7.68243,2.41555 -1.33502,-0.61538 -2.20473,-1.25497 -4.01914,-2.9557 -0.89948,-0.84313 -1.89174,-1.65705 -2.20503,-1.80871 -1.1585,-0.56082 -2.03643,-0.31526 -3.64045,1.01822 -3.47693,2.8905 -5.95854,3.9554 -10.63871,4.56527 -1.39579,0.18188 -6.2826,0.25188 -7.95495,0.11395 z"
       id="path1035"
       inkscape:connector-curvature="0"
       transform="scale(0.26458333)" />
    <path
       style="fill:#ffff00;fill-opacity:0.30882353;stroke:#d3d3d3;stroke-width:0.12646791;stroke-miterlimit:4;stroke-dasharray:none;stroke-dashoffset:0;stroke-opacity:1"
       d="m 706.39697,227.37783 c -1.91554,-0.14357 -4.30908,-0.45529 -5.77683,-0.75235 -5.53043,-1.11929 -7.7849,-3.95688 -8.31484,-10.4655 -0.29327,-3.60189 0.31859,-9.70373 1.72897,-17.2424 1.70539,-9.11548 4.78011,-21.13412 7.42975,-29.04188 2.69516,-8.0436 4.03282,-9.8797 7.64248,-10.49025 1.41901,-0.24002 2.32905,-0.16501 3.23024,0.26624 1.42894,0.68381 1.60078,1.41716 1.40453,5.99399 -0.15853,3.69696 0.1706,5.09278 1.47804,6.26827 0.81027,0.72851 1.63452,1.14175 4.02889,2.01989 3.18351,1.16756 4.39422,1.91759 5.22832,3.23887 1.12109,1.77594 1.29282,4.53412 0.42955,6.89952 -0.84559,2.31699 -2.21548,3.76 -5.88219,6.19619 -3.30407,2.19524 -4.87367,3.60868 -5.87028,5.28623 -2.17819,3.66643 -1.98447,9.08221 0.40841,11.4179 0.90611,0.88446 1.76474,1.31617 4.44098,2.23292 2.45738,0.84178 3.79479,1.45658 5.17097,2.37709 1.91428,1.28044 3.78456,3.51288 4.31512,5.15069 1.03103,3.18279 -1.13994,6.4268 -5.78065,8.63787 -3.61946,1.7245 -9.24314,2.46153 -15.31146,2.00671 z"
       id="path1037"
       inkscape:connector-curvature="0"
       transform="scale(0.26458333)" />
    <path
       style="fill:#ffff00;fill-opacity:0.30882353;stroke:#d3d3d3;stroke-width:0.12646791;stroke-miterlimit:4;stroke-dasharray:none;stroke-dashoffset:0;stroke-opacity:1"
       d="m 754.26922,228.26889 c -2.70939,-0.12695 -5.99263,-0.55088 -7.79835,-1.00691 -4.93498,-1.24635 -6.99231,-4.05952 -7.49743,-10.25194 -0.55455,-6.79822 2.18384,-22.3149 6.83012,-38.70191 2.94126,-10.37356 4.92956,-15.2485 6.87248,-16.85002 1.53122,-1.26216 4.81124,-1.76439 6.35031,-0.97236 0.34761,0.17889 0.76055,0.53084 0.96632,0.82362 0.47282,0.67274 0.56408,1.74266 0.41294,4.84139 -0.14233,2.91807 -0.005,4.24569 0.55594,5.3857 0.67962,1.38051 1.70346,2.04096 5.08736,3.28176 2.45747,0.90109 3.53283,1.46173 4.31962,2.25201 1.19842,1.20374 1.74206,2.68923 1.73393,4.73789 -0.01,2.50741 -0.8836,4.63689 -2.61109,6.36438 -0.85053,0.85053 -1.67672,1.48068 -4.23674,3.23143 -1.14589,0.78366 -2.49924,1.77204 -3.00745,2.1964 -1.74898,1.46043 -2.83747,3.11151 -3.50955,5.32348 -0.30926,1.01786 -0.34445,1.331 -0.35403,3.1505 -0.009,1.78275 0.0241,2.13166 0.2849,2.96732 0.41398,1.32655 0.83198,2.03942 1.65766,2.82698 0.91963,0.87717 1.82987,1.32764 4.53136,2.24249 3.50117,1.18566 5.46471,2.34834 7.29792,4.32135 1.53924,1.65664 2.23472,3.13695 2.23226,4.75132 -0.002,1.15315 -0.25216,1.91367 -1.0042,3.05 -2.22694,3.36485 -7.42412,5.63391 -13.68471,5.97466 -2.72358,0.14824 -3.39629,0.15573 -5.42957,0.0605 z"
       id="path1039"
       inkscape:connector-curvature="0"
       transform="scale(0.26458333)" />
    <path
       style="fill:#ffff00;fill-opacity:0.30882353;stroke:#d3d3d3;stroke-width:0.12646791;stroke-miterlimit:4;stroke-dasharray:none;stroke-dashoffset:0;stroke-opacity:1"
       d="m 792.52875,265.39381 c -4.22871,-0.52054 -7.69429,-2.05363 -10.2172,-4.51984 -1.09244,-1.0679 -2.0419,-2.43874 -2.44978,-3.53702 -0.38979,-1.04957 -0.37838,-2.65845 0.0243,-3.42919 0.65159,-1.24713 2.44589,-2.44767 4.43518,-2.96749 1.22573,-0.3203 3.93651,-0.37606 6.73591,-0.13857 2.96702,0.25171 3.97319,0.25288 5.85297,0.007 3.11312,-0.40751 5.89538,-1.68059 8.88569,-4.06583 3.80511,-3.03517 7.33049,-7.59757 8.52867,-11.03745 0.3765,-1.0809 0.52931,-2.80676 0.31754,-3.58635 -0.21883,-0.80561 -0.86122,-1.65671 -1.70382,-2.25742 -1.39983,-0.99797 -2.81101,-1.50065 -7.63938,-2.72128 -4.67823,-1.18266 -6.45807,-1.86319 -8.57331,-3.27806 -4.1805,-2.79628 -6.44083,-7.53756 -6.17323,-12.94898 0.37877,-7.65967 4.60507,-16.55628 9.30006,-19.57717 1.61374,-1.03833 2.79873,-1.3892 4.37411,-1.29516 1.16254,0.0694 1.82829,0.36131 2.57219,1.12786 1.53237,1.579 1.89333,3.94768 1.66558,10.92989 -0.14711,4.51006 -0.073,6.44797 0.29511,7.71412 1.19157,4.09886 4.76495,4.23276 8.52592,0.31946 1.29743,-1.34998 2.2482,-2.60952 4.01539,-5.31945 5.23263,-8.02404 5.87371,-8.90776 7.82539,-10.78707 2.85831,-2.75234 5.45043,-3.57661 6.26908,-1.99351 0.10598,0.20494 0.29102,0.75841 0.4112,1.22993 0.18952,0.74353 0.21876,1.54445 0.22032,6.03435 0.002,5.44756 -0.0622,6.46926 -0.64571,10.29093 -0.83581,5.47424 -2.60677,12.47824 -4.88917,19.33626 -1.90988,5.73868 -3.65946,10.06255 -5.94537,14.69325 -2.96051,5.99729 -5.40372,9.59384 -8.83632,13.00761 -4.70872,4.6829 -10.42869,7.60418 -16.80474,8.58246 -1.56113,0.23952 -5.10523,0.34341 -6.37659,0.18691 z"
       id="path1041"
       inkscape:connector-curvature="0"
       transform="scale(0.26458333)" />
    <path
       style="fill:#ffff00;fill-opacity:0.30882353;stroke:#d3d3d3;stroke-width:0.12646791;stroke-miterlimit:4;stroke-dasharray:none;stroke-dashoffset:0;stroke-opacity:1"
       d="m 710.4371,398.52838 c -4.41856,-0.43306 -7.14824,-1.10387 -9.96269,-2.44831 -1.82304,-0.87085 -3.28138,-1.87175 -4.64408,-3.18736 -1.35211,-1.3054 -2.2363,-2.53027 -3.01856,-4.18164 -0.9523,-2.01031 -1.11125,-2.79688 -1.11223,-5.50378 -7.7e-4,-2.14698 0.0266,-2.43498 0.33776,-3.55959 0.94143,-3.40213 2.81059,-6.44421 5.93459,-9.65868 3.36775,-3.46527 7.0351,-6.09292 11.77073,-8.43372 3.54317,-1.75138 6.85167,-2.8681 10.30713,-3.47897 1.97514,-0.34917 6.46769,-0.48461 8.45364,-0.25486 4.9853,0.57675 9.12552,2.40596 10.40094,4.59529 0.73366,1.25936 0.6983,2.36634 -0.12811,4.01123 -1.04407,2.07811 -3.77324,4.91307 -8.19116,8.50867 -1.45062,1.18062 -2.74816,2.29632 -2.8834,2.47933 -0.21929,0.29672 -0.22723,0.37191 -0.0734,0.69448 0.25548,0.53558 0.66891,0.515 2.95372,-0.14708 6.3393,-1.83694 8.8729,-1.98549 11.75534,-0.6892 2.44098,1.09775 4.80723,3.66002 5.87655,6.36336 0.34523,0.87277 0.40532,1.18761 0.41189,2.15825 0.007,1.00844 -0.0339,1.22175 -0.3619,1.89404 -0.47817,0.98018 -1.71704,2.22307 -3.14122,3.15139 -5.17652,3.37423 -17.45869,6.7654 -27.47245,7.58528 -1.97955,0.16207 -6.01708,0.2191 -7.21313,0.10187 z m 1.77493,-13.86997 c 2.53332,-0.65371 4.36885,-2.54078 4.97327,-5.11293 0.40863,-1.73895 0.15778,-4.25942 -0.56764,-5.70345 -0.70328,-1.39996 -2.0464,-2.61438 -3.52891,-3.19077 -0.7607,-0.29574 -2.26576,-0.57596 -3.0936,-0.57596 -1.83624,0 -4.12274,0.83952 -5.22739,1.91931 -1.397,1.36555 -2.0461,2.93597 -2.12939,5.15176 -0.0939,2.49752 0.50379,4.21651 1.98067,5.69669 1.12698,1.12951 2.43174,1.76041 4.23969,2.05007 0.67958,0.10888 2.52132,-0.02 3.3533,-0.23472 z"
       id="path1043"
       inkscape:connector-curvature="0"
       transform="scale(0.26458333)" />
    <path
       style="fill:#ffff00;fill-opacity:0.30882353;stroke:#d3d3d3;stroke-width:0.12646791;stroke-miterlimit:4;stroke-dasharray:none;stroke-dashoffset:0;stroke-opacity:1"
       d="m 645.01822,395.35087 c -2.18325,-0.72532 -3.36496,-2.61372 -3.6437,-5.82273 -0.65151,-7.50063 4.57937,-23.05889 9.84352,-29.27768 1.41768,-1.67477 3.03137,-2.82532 4.82724,-3.44179 1.56954,-0.53878 3.22233,-0.6642 6.44329,-0.48894 3.41263,0.18568 5.10698,0.054 10.1256,-0.7867 6.2747,-1.05116 8.90202,-0.98693 11.53003,0.28186 0.88996,0.42967 1.29789,0.72938 2.11829,1.55634 1.70783,1.72147 2.49599,3.65321 2.50435,6.13808 0.007,2.19252 -0.61168,3.72224 -2.0588,5.08738 -1.40801,1.32825 -3.04298,1.99274 -7.70624,3.13202 -7.61414,1.86021 -10.70451,3.22963 -13.71136,6.07587 -1.89189,1.79083 -3.23877,3.46336 -6.33545,7.86727 -3.82174,5.43503 -5.56755,7.30345 -8.12906,8.69995 -1.9981,1.08933 -4.30515,1.47825 -5.80771,0.97907 z"
       id="path1045"
       inkscape:connector-curvature="0"
       transform="scale(0.26458333)" />
    <path
       style="fill:#ffff00;fill-opacity:0.30882353;stroke:#d3d3d3;stroke-width:0.12646791;stroke-miterlimit:4;stroke-dasharray:none;stroke-dashoffset:0;stroke-opacity:1"
       d="m 593.70134,398.91313 c -5.37736,-0.53207 -9.23966,-1.50811 -12.1238,-3.0638 -2.88171,-1.55438 -4.76704,-3.89632 -5.54688,-6.89032 -0.51561,-1.97959 -0.57033,-5.29982 -0.13328,-8.0877 1.46626,-9.35314 6.61955,-20.74506 11.1117,-24.56367 1.5797,-1.34284 3.08445,-1.95307 4.59283,-1.86256 1.70409,0.10225 3.02681,1.05415 3.97674,2.86188 1.1513,2.19092 1.43354,4.87362 1.21048,11.50565 -0.16204,4.81783 -0.0717,6.57123 0.41482,8.05334 0.96452,2.93815 3.50085,3.47275 6.60999,1.39323 1.98979,-1.33086 4.07625,-3.61042 7.44755,-8.13684 1.02791,-1.38011 2.61067,-3.50365 3.51724,-4.71899 3.75953,-5.03999 6.02278,-7.34343 8.02458,-8.16704 0.89386,-0.36777 1.54956,-0.3654 2.33903,0.008 1.6886,0.79965 3.09398,3.51202 4.29054,8.28068 2.37636,9.47053 3.03791,22.10837 1.45439,27.78337 -1.04742,3.75375 -3.52023,5.77973 -6.47775,5.30726 -2.18627,-0.34925 -3.59551,-1.17022 -6.11606,-3.56295 -2.85008,-2.70555 -3.4405,-2.75096 -6.28126,-0.48309 -2.60447,2.07924 -4.25642,2.95052 -6.83983,3.6075 -2.28794,0.58185 -3.56145,0.71141 -7.36728,0.74953 -1.97927,0.0198 -3.82596,0.0136 -4.10375,-0.0139 z"
       id="path1047"
       inkscape:connector-curvature="0"
       transform="scale(0.26458333)" />
    <path
       style="fill:#ffff00;fill-opacity:0.30882353;stroke:#d3d3d3;stroke-width:0.12646791;stroke-miterlimit:4;stroke-dasharray:none;stroke-dashoffset:0;stroke-opacity:1"
       d="m 545.74239,397.33401 c -5.56104,-0.47112 -8.75218,-1.45673 -10.52586,-3.251 -2.11202,-2.13655 -2.94694,-4.99025 -2.94184,-10.05497 0.006,-6.41236 1.5925,-15.95468 4.75888,-28.63146 3.18362,-12.74581 5.99467,-21.03707 8.06645,-23.79219 1.19338,-1.58699 3.25109,-2.4195 5.65919,-2.28959 1.1587,0.0625 1.78023,0.29562 2.35462,0.88312 0.70791,0.72406 0.75799,1.20535 0.64141,6.16354 -0.0433,1.84349 -0.0139,2.63677 0.11723,3.15673 0.54367,2.15599 1.59088,3.03362 5.19131,4.35068 2.67767,0.9795 3.64901,1.46854 4.52183,2.27662 2.12063,1.96333 2.49834,5.62373 0.91226,8.84066 -0.93653,1.89949 -1.92672,2.84519 -5.67323,5.41831 -3.91851,2.69125 -4.99815,3.73632 -6.01211,5.81964 -0.85361,1.75383 -1.11694,2.9375 -1.12367,5.05076 -0.009,2.70668 0.55792,4.39893 1.91696,5.72594 0.90677,0.8854 1.81234,1.33294 4.68608,2.31592 1.21862,0.41684 2.55847,0.92917 2.97744,1.13852 2.90251,1.45031 5.48075,4.04386 6.19938,6.23618 0.34173,1.04252 0.31543,2.53412 -0.061,3.45803 -1.25884,3.08991 -5.21228,5.67883 -10.22067,6.69305 -2.8933,0.5859 -7.82858,0.79785 -11.44468,0.49151 z"
       id="path1049"
       inkscape:connector-curvature="0"
       transform="scale(0.26458333)" />
    <path
       style="fill:#ffff00;fill-opacity:0.30882353;stroke:#d3d3d3;stroke-width:0.12646791;stroke-miterlimit:4;stroke-dasharray:none;stroke-dashoffset:0;stroke-opacity:1"
       d="m 479.44973,400.46325 c -2.19319,-0.81563 -3.47337,-2.55569 -4.04976,-5.50457 -1.44697,-7.40273 3.15375,-24.90192 7.72435,-29.38017 1.38029,-1.3524 2.79373,-1.66442 4.28176,-0.94521 1.45424,0.70288 2.64547,1.90384 5.08476,5.12633 3.03995,4.01601 4.29059,5.35177 5.74787,6.13908 0.68957,0.37255 0.89833,0.42383 1.73115,0.42527 1.72813,0.003 2.88146,-0.805 5.85816,-4.10409 2.44302,-2.70761 4.25923,-4.49554 5.50483,-5.41909 1.37907,-1.02252 3.29241,-1.94804 4.86555,-2.35356 1.10891,-0.28586 1.44868,-0.31852 2.83809,-0.27277 1.22691,0.0404 1.73235,0.11244 2.26996,0.32352 1.60792,0.63133 2.6705,1.7376 3.18457,3.31551 0.3798,1.16577 0.4529,3.67397 0.16637,5.70833 -0.58929,4.18391 -2.52384,10.00782 -5.0013,15.05628 -1.64023,3.34238 -2.8993,5.24742 -4.40996,6.6725 -1.74518,1.64632 -3.43791,2.1283 -5.77985,1.64573 -2.16856,-0.44684 -3.97037,-1.39049 -8.95631,-4.69066 -1.6822,-1.11344 -3.5573,-2.28109 -4.16688,-2.59477 -3.69172,-1.8997 -5.1733,-1.15875 -7.01546,3.5085 -1.35121,3.42342 -2.06518,4.69362 -3.26005,5.79985 -1.36083,1.25989 -2.86175,1.84349 -4.71376,1.83285 -0.86253,-0.005 -1.33236,-0.0762 -1.90409,-0.28886 z"
       id="path1051"
       inkscape:connector-curvature="0"
       transform="scale(0.26458333)" />
    <path
       style="fill:#ffff00;fill-opacity:0.30882353;stroke:#d3d3d3;stroke-width:0.12646791;stroke-miterlimit:4;stroke-dasharray:none;stroke-dashoffset:0;stroke-opacity:1"
       d="m 430.07993,408.50537 c -0.20835,-0.0243 -0.90737,-0.10549 -1.55339,-0.18044 -10.14939,-1.1776 -16.94503,-7.22499 -16.94503,-15.07925 0,-6.84692 5.40919,-14.13329 14.7355,-19.84925 3.43806,-2.10713 7.83723,-3.96838 11.44745,-4.84332 4.21432,-1.02134 9.19511,-1.15801 13.13466,-0.36042 3.95326,0.80038 7.02059,2.4761 8.10008,4.4252 0.32242,0.58213 0.37511,0.81032 0.37513,1.62429 2e-5,0.83052 -0.0563,1.06353 -0.45811,1.89404 -1.20941,2.49999 -3.45114,4.84988 -8.59314,9.00775 -2.46138,1.9903 -2.75489,2.28005 -2.75489,2.71973 0,0.84429 0.43897,0.83777 3.552,-0.0528 3.60856,-1.03232 5.27705,-1.34551 7.18087,-1.34795 1.34869,-0.002 1.74324,0.0471 2.71139,0.33593 3.19075,0.95172 5.66238,3.28804 7.17455,6.78176 0.36191,0.83618 0.4017,1.05229 0.40326,2.1904 0.002,1.14787 -0.0319,1.3291 -0.3683,1.99298 -0.75411,1.48829 -2.71493,3.05546 -5.52861,4.41869 -6.15435,2.98178 -16.79563,5.61577 -25.34662,6.27392 -1.56094,0.12015 -6.37715,0.15243 -7.2668,0.0487 z m 4.29315,-16.2704 c 2.6981,-0.56647 4.69041,-2.51404 5.31153,-5.19224 0.25386,-1.09465 0.24718,-3.10083 -0.0137,-4.11458 -0.67943,-2.64003 -2.44178,-4.40238 -5.08181,-5.08181 -1.01375,-0.2609 -3.01993,-0.26759 -4.11458,-0.0137 -3.49391,0.81029 -5.53158,3.72663 -5.34337,7.64751 0.15452,3.21918 1.72837,5.49602 4.46361,6.45738 0.40435,0.14212 0.96303,0.3037 1.24153,0.35907 0.83739,0.1665 2.59626,0.13586 3.53681,-0.0616 z"
       id="path1053"
       inkscape:connector-curvature="0"
       transform="scale(0.26458333)" />
    <path
       style="fill:#ffff00;fill-opacity:0.30882353;stroke:#d3d3d3;stroke-width:0.12646791;stroke-miterlimit:4;stroke-dasharray:none;stroke-dashoffset:0;stroke-opacity:1"
       d="m 364.21821,410.92804 c -4.55625,-0.83465 -7.7653,-3.0579 -9.75755,-6.76009 -3.75592,-6.97958 -4.48051,-24.10043 -1.39211,-32.89309 0.46327,-1.31891 1.47366,-3.16156 2.22254,-4.05321 0.8396,-0.99969 2.3614,-2.09017 3.33626,-2.3907 2.18232,-0.67276 4.4073,-0.16205 6.14502,1.4105 1.81364,1.64124 2.72648,3.54844 4.06266,8.48806 1.06683,3.94387 1.38468,4.96364 1.87564,6.01767 1.2902,2.76991 2.83122,3.02049 5.62937,0.91537 0.48614,-0.36574 2.5407,-2.29031 4.56569,-4.27684 4.149,-4.07019 6.24442,-5.95817 8.41852,-7.58513 3.23113,-2.41798 6.53567,-3.99774 10.00836,-4.78455 1.7968,-0.40711 4.44052,-0.40963 5.59691,-0.005 3.6174,1.2647 3.97039,4.48814 1.13436,10.35887 -2.96738,6.14264 -8.89614,14.16523 -15.97739,21.62007 -7.9413,8.36026 -14.62501,12.88455 -20.57061,13.92452 -1.35542,0.23709 -4.04085,0.24413 -5.29767,0.0139 z"
       id="path1055"
       inkscape:connector-curvature="0"
       transform="scale(0.26458333)" />
    <path
       style="fill:#ffff00;fill-opacity:0.30882353;stroke:#d3d3d3;stroke-width:0.12646791;stroke-miterlimit:4;stroke-dasharray:none;stroke-dashoffset:0;stroke-opacity:1"
       d="m 313.43303,410.74675 c -1.72184,-0.3832 -3.13472,-0.96252 -6.63102,-2.71891 -3.53307,-1.77485 -4.6915,-2.2271 -6.52568,-2.54761 -2.27962,-0.39836 -4.23473,-0.14794 -9.95054,1.27448 -5.87006,1.46081 -7.36854,1.70383 -11.07108,1.79552 -3.9932,0.0989 -6.97784,-0.27479 -10.34379,-1.29506 -4.05258,-1.22839 -7.05039,-2.88731 -9.33878,-5.16787 -1.93225,-1.92563 -2.88826,-3.67959 -3.41056,-6.25725 -0.28726,-1.41767 -0.19144,-4.86194 0.17958,-6.455 0.67491,-2.89795 2.10153,-6.17414 3.78542,-8.69314 3.03931,-4.54664 7.17577,-8.04306 12.83722,-10.85088 5.15681,-2.55754 10.42137,-4.1739 18.30901,-5.62135 5.3147,-0.97529 7.915,-1.68917 10.38329,-2.85061 5.48983,-2.58319 9.64624,-6.70344 15.47264,-15.33802 2.20373,-3.26588 3.51838,-5.34694 8.65469,-13.7002 6.04813,-9.83615 8.27493,-13.25219 11.07078,-16.98319 4.85535,-6.47935 9.0195,-9.63344 11.59586,-8.78317 0.9533,0.31462 1.87361,1.70939 2.34525,3.55433 0.74357,2.90868 0.6982,8.36275 -0.12069,14.50962 -1.78352,13.38757 -6.81614,33.76759 -12.67497,51.32838 -5.48417,16.43777 -9.94143,25.74452 -14.88534,31.08057 -2.93892,3.17202 -6.31417,4.46873 -9.68129,3.71936 z M 283.381,392.41764 c 4.81433,-0.43996 9.00533,-2.24447 11.61442,-5.00079 1.17786,-1.24433 1.80269,-2.39714 2.1043,-3.88242 0.18306,-0.90149 0.18423,-1.09289 0.0121,-1.9668 -0.49849,-2.53027 -2.19636,-4.2799 -4.73412,-4.87846 -3.38982,-0.79952 -8.04129,1.44965 -12.47169,6.03057 -2.1606,2.23401 -3.42281,4.21319 -3.7091,5.816 -0.38564,2.159 1.13042,3.55635 4.2168,3.88659 1.30549,0.13969 1.38879,0.13956 2.96732,-0.005 z"
       id="path1057"
       inkscape:connector-curvature="0"
       transform="scale(0.26458333)" />
    <path
       style="fill:#ffff00;fill-opacity:0.30882353;stroke:#d3d3d3;stroke-width:0.12646791;stroke-miterlimit:4;stroke-dasharray:none;stroke-dashoffset:0;stroke-opacity:1"
       d="m 238.25339,413.49816 c -2.22604,-0.32077 -5.40767,-1.69412 -7.39186,-3.19068 -2.07964,-1.56855 -4.17916,-4.04499 -5.27895,-6.22665 -0.7125,-1.41337 -1.38972,-3.26978 -2.48968,-6.82474 -1.37038,-4.42893 -1.75996,-5.48599 -2.8276,-7.67221 -2.60742,-5.33927 -6.34014,-8.27125 -12.75842,-10.02149 -5.63434,-1.53646 -13.23029,-1.75033 -20.41599,-0.57484 -4.52702,0.74057 -9.066,2.16038 -12.63967,3.95373 -5.96035,2.99105 -10.94002,7.22929 -17.96716,15.29203 -6.98143,8.0103 -9.72233,9.22644 -16.08952,7.13891 -4.09248,-1.34175 -5.93568,-2.94999 -6.75037,-5.88988 -1.79548,-6.47923 2.93577,-18.04937 15.8202,-38.68781 13.07736,-20.94748 35.16078,-51.78358 46.92648,-65.52564 2.41129,-2.81633 7.04574,-7.48058 8.90632,-8.9636 5.73468,-4.57097 12.20792,-7.02257 16.89187,-6.39744 6.04591,0.80691 10.6005,5.79155 14.31691,15.6687 4.36283,11.59519 8.06833,34.55599 10.07681,62.44006 1.08146,15.01417 1.46744,30.87696 0.95092,39.08027 -0.69029,10.96301 -2.47731,15.71151 -6.17677,16.4131 -0.78381,0.14865 -2.02271,0.14392 -3.10352,-0.0119 z m -32.00977,-66.21798 c 2.74007,-0.38941 5.3867,-1.28931 7.49002,-2.54676 1.21017,-0.72349 2.89169,-2.32061 3.59311,-3.41275 1.76353,-2.74593 2.01956,-6.35069 0.72577,-10.21848 -1.61757,-4.83571 -4.82049,-8.33028 -8.49684,-9.27053 -1.1574,-0.29601 -3.24038,-0.32582 -4.59464,-0.0657 -4.60109,0.88361 -9.22352,4.43903 -11.34219,8.72403 -1.25804,2.54439 -1.718,4.6576 -1.60652,7.38089 0.22273,5.44103 3.19048,8.65316 8.7417,9.46155 1.22141,0.17787 4.06062,0.15086 5.48959,-0.0522 z"
       id="path1059"
       inkscape:connector-curvature="0"
       transform="scale(0.26458333)" />
  </g>
</svg>
