<?xml version="1.0" encoding="UTF-8" standalone="no"?>
<!-- Created with Inkscape (http://www.inkscape.org/) -->

<svg
   xmlns:dc="http://purl.org/dc/elements/1.1/"
   xmlns:cc="http://creativecommons.org/ns#"
   xmlns:rdf="http://www.w3.org/1999/02/22-rdf-syntax-ns#"
   xmlns:svg="http://www.w3.org/2000/svg"
   xmlns="http://www.w3.org/2000/svg"
   xmlns:sodipodi="http://sodipodi.sourceforge.net/DTD/sodipodi-0.dtd"
   xmlns:inkscape="http://www.inkscape.org/namespaces/inkscape"
   width="159.74147mm"
   height="112.72938mm"
   viewBox="0 0 159.74147 112.72938"
   version="1.1"
   id="svg1875"
   inkscape:version="0.92.5 (2060ec1f9f, 2020-04-08)"
   sodipodi:docname="win_screen.svg">
  <defs
     id="defs1869">
    <inkscape:path-effect
       effect="bspline"
       id="path-effect2444"
       is_visible="true"
       weight="33.333333"
       steps="2"
       helper_size="0"
       apply_no_weight="true"
       apply_with_weight="true"
       only_selected="false" />
    <inkscape:path-effect
       effect="bspline"
       id="path-effect2436"
       is_visible="true"
       weight="33.333333"
       steps="2"
       helper_size="0"
       apply_no_weight="true"
       apply_with_weight="true"
       only_selected="false" />
    <inkscape:path-effect
       effect="bspline"
       id="path-effect2432"
       is_visible="true"
       weight="33.333333"
       steps="2"
       helper_size="0"
       apply_no_weight="true"
       apply_with_weight="true"
       only_selected="false" />
    <inkscape:path-effect
       effect="bspline"
       id="path-effect2428"
       is_visible="true"
       weight="33.333333"
       steps="2"
       helper_size="0"
       apply_no_weight="true"
       apply_with_weight="true"
       only_selected="false" />
    <inkscape:path-effect
       effect="bspline"
       id="path-effect2424"
       is_visible="true"
       weight="33.333333"
       steps="2"
       helper_size="0"
       apply_no_weight="true"
       apply_with_weight="true"
       only_selected="false" />
  </defs>
  <sodipodi:namedview
     id="base"
     pagecolor="#ffffff"
     bordercolor="#666666"
     borderopacity="1.0"
     inkscape:pageopacity="0.0"
     inkscape:pageshadow="2"
     inkscape:zoom="1.4"
     inkscape:cx="268.71665"
     inkscape:cy="179.86875"
     inkscape:document-units="mm"
     inkscape:current-layer="layer1"
     showgrid="true"
     inkscape:window-width="1848"
     inkscape:window-height="1016"
     inkscape:window-x="1992"
     inkscape:window-y="27"
     inkscape:window-maximized="1"
     fit-margin-top="20"
     fit-margin-left="20"
     fit-margin-right="20"
     fit-margin-bottom="20">
    <inkscape:grid
       type="xygrid"
       id="grid2420"
       originx="2.3799073"
       originy="-188.7431" />
  </sodipodi:namedview>
  <metadata
     id="metadata1872">
    <rdf:RDF>
      <cc:Work
         rdf:about="">
        <dc:format>image/svg+xml</dc:format>
        <dc:type
           rdf:resource="http://purl.org/dc/dcmitype/StillImage" />
        <dc:title></dc:title>
      </cc:Work>
    </rdf:RDF>
  </metadata>
  <g
     inkscape:label="Layer 1"
     inkscape:groupmode="layer"
     id="layer1"
     transform="translate(2.3799075,4.4724818)">
    <path
       style="fill:none;stroke:#000000;stroke-width:0.26458332px;stroke-linecap:butt;stroke-linejoin:miter;stroke-opacity:1"
       d="m 19.843886,18.305442 c 2.204681,5.291711 8.378293,14.993101 6.980068,25.674397 C 25.42573,54.661135 16.757171,65.930261 12.347336,72.985865 7.9374999,80.041469 7.9374999,82.687236 9.2606809,84.010285 10.583862,85.333334 13.229431,85.333334 22.466907,73.901002 31.704383,62.468669 47.625209,39.471919 54.239784,27.565853 60.854359,15.659786 58.208491,14.77783 56.00363,14.336832 c -2.204862,-0.440999 -3.968643,-0.440999 -6.173767,2.64611 -2.205123,3.087109 -4.85056,9.259794 -6.70258,12.611278 -1.852021,3.351484 -4.321409,4.586177 -6.967746,1.498763 -2.646337,-3.087414 -6.17348,-10.141701 -8.81922,-14.110364 -2.645741,-3.968664 -4.409656,-4.850622 -6.173492,-4.850701 -1.763836,-7.9e-5 -3.527619,0.881812 -1.322939,6.173524 z"
       id="path2422"
       inkscape:connector-curvature="0"
       inkscape:path-effect="#path-effect2424"
       inkscape:original-d="m 15.875,13.895833 c 6.173875,9.701124 12.347487,19.402514 18.520833,29.104168 -9.148742,11.52372 -17.638624,22.930289 -26.4583331,34.395833 2.646e-4,2.645635 2.646e-4,5.291402 0,7.9375 2.6463621,-2.65e-4 5.2919311,-2.65e-4 7.9375001,0 15.910388,-22.808584 31.750264,-45.861377 47.624999,-68.791668 -2.645534,-0.882197 -5.291402,-1.764153 -7.9375,-2.645833 -1.763731,-2.64e-4 -3.527512,-2.64e-4 -5.291666,0 -2.645966,6.174273 -5.291402,12.346958 -7.9375,18.520835 -0.881727,0.881724 -3.527512,1.763622 -5.291667,2.645833 C 33.513519,28.00541 29.986374,20.951124 26.458333,13.895833 24.694735,13.013637 22.93082,12.13168 21.166666,11.25 19.402936,12.131733 17.639153,13.013624 15.875,13.895833 Z"
       transform="translate(9.2602802,3.5278918)" />
    <path
       style="fill:none;stroke:#000000;stroke-width:0.26458332px;stroke-linecap:butt;stroke-linejoin:miter;stroke-opacity:1"
       d="m 61.736268,42.99985 c -1.763996,2.645683 -2.645941,7.93735 -1.763916,11.465348 0.882025,3.527998 3.527708,5.291788 6.614602,5.291708 3.086894,-8e-5 6.614752,-1.764009 8.378482,-1.764142 1.76373,-1.33e-4 1.76373,1.763916 2.989355,2.237452 1.225624,0.473535 4.066359,-0.473376 4.507253,-4.000819 0.440894,-3.527443 -1.323206,-9.701794 -3.086913,-12.788512 -1.763707,-3.086718 -3.527644,-3.086718 -4.850729,-0.881679 -1.323085,2.205038 -2.204897,6.6141 -3.527774,8.819114 -1.322876,2.205014 -3.086641,2.205014 -3.527649,-3.31e-4 -0.441009,-2.205345 0.440804,-6.614407 -0.440948,-8.819114 -0.881751,-2.204708 -3.527767,-2.204708 -5.291763,0.440975 z"
       id="path2426"
       inkscape:connector-curvature="0"
       inkscape:path-effect="#path-effect2428"
       inkscape:original-d="m 60.854166,40.354167 c -0.881679,5.291402 -1.763625,10.583069 -2.645833,15.875 2.646248,1.763723 5.291931,3.527513 7.937499,5.291667 3.527963,-1.764115 7.055821,-3.528044 10.583334,-5.291667 2.64e-4,1.763464 2.64e-4,3.527513 0,5.291667 2.398445,-0.975495 5.291931,-1.764154 7.9375,-2.645833 -1.763414,-6.173137 -3.527513,-12.347488 -5.291667,-18.520834 -1.763575,-2.64e-4 -3.527512,-2.64e-4 -5.291667,0 -0.881811,4.410118 -1.763625,8.819179 -2.645833,13.229167 -1.763747,-2.65e-4 -3.527512,-2.65e-4 -5.291667,0 0.882341,-4.410649 1.764155,-8.819711 2.645834,-13.229167 -2.645386,-2.64e-4 -5.291402,-2.64e-4 -7.9375,0 z" />
    <path
       style="fill:none;stroke:#000000;stroke-width:0.26458332px;stroke-linecap:butt;stroke-linejoin:miter;stroke-opacity:1"
       d="m 88.194576,43.881812 c -0.882077,3.527645 -0.882077,10.583201 -0.441089,14.5521 0.440989,3.968898 1.3229,4.85081 2.645977,4.85073 1.323076,-7.9e-5 3.086963,-0.882022 3.527836,-3.527482 0.440873,-2.645459 -0.441231,-7.055976 -0.441098,-9.701819 1.32e-4,-2.645842 0.882118,-3.527828 1.763779,-1.323737 0.881662,2.204092 1.763871,7.497349 3.086974,10.14329 1.323103,2.64594 3.086915,2.64594 3.968725,0.441277 0.88182,-2.204663 0.88182,-6.615048 1.76368,-6.615116 0.88187,-6.8e-5 2.64586,4.409917 3.96895,6.614848 1.32309,2.204931 2.20501,2.204931 3.08682,1.763959 0.88181,-0.440972 1.76402,-1.323181 1.32316,-4.849989 -0.44087,-3.526807 -2.20528,-9.70227 -4.40993,-11.907169 -2.20465,-2.204899 -4.85056,-0.440959 -6.61452,0.441085 -1.763957,0.882045 -2.6458,0.882045 -3.969113,-1.64e-4 -1.323313,-0.88221 -3.086673,-2.645569 -4.85043,-3.527514 -1.763757,-0.881944 -3.527644,-0.881944 -4.409721,2.645701 z"
       id="path2430"
       inkscape:connector-curvature="0"
       inkscape:path-effect="#path-effect2432"
       inkscape:original-d="m 87.312499,40.354167 c 2.64e-4,7.05529 2.64e-4,14.110846 0,21.166667 0.882242,0.881711 1.764154,1.763622 2.645833,2.645833 1.764155,-0.882211 3.528042,-1.764154 5.291667,-2.645833 -0.88152,-4.409194 -1.763625,-8.819711 -2.645833,-13.229167 0.882168,-0.882168 1.764154,-1.764154 2.645833,-2.645833 0.881943,5.289812 1.764154,10.583069 2.645833,15.875 1.764226,-2.65e-4 3.528038,-2.65e-4 5.291668,0 2.6e-4,-4.409326 2.6e-4,-8.819711 0,-13.229167 1.76405,4.409192 3.52804,8.819179 5.29167,13.229167 0.88223,-2.65e-4 1.76415,-2.65e-4 2.64583,0 0.88194,-0.881946 1.76415,-1.764154 2.64583,-2.645833 -1.76309,-6.172026 -3.52751,-12.347488 -5.29166,-18.520834 -2.6455,1.763573 -5.29141,3.527513 -7.9375,5.291667 -0.881787,-2.65e-4 -1.76363,-2.65e-4 -2.645838,0 -1.764154,-1.764683 -3.527512,-3.528044 -5.291666,-5.291667 -1.763626,-2.64e-4 -3.527513,-2.64e-4 -5.291667,0 z" />
    <path
       style="fill:none;stroke:#000000;stroke-width:0.26458332px;stroke-linecap:butt;stroke-linejoin:miter;stroke-opacity:1"
       d="m 133.6148,19.187261 c -3.0869,6.173531 -7.49662,17.638807 -9.26059,24.253523 -1.76396,6.614717 -0.88204,8.378556 2.20502,3.527411 3.08707,-4.851145 8.37841,-16.315736 11.02417,-23.371228 2.64576,-7.055492 2.64576,-9.701398 1.76407,-10.583335 -0.8817,-0.881937 -2.64577,9.8e-5 -5.73267,6.173629 z"
       id="path2434"
       inkscape:connector-curvature="0"
       inkscape:path-effect="#path-effect2436"
       inkscape:original-d="m 134.9375,13.895833 c -4.40946,11.465013 -8.81918,22.93029 -13.22917,34.395834 0.88224,1.763673 1.76416,3.527513 2.64584,5.291667 5.29224,-11.466232 10.58359,-22.930821 15.87499,-34.395834 2.7e-4,-2.646025 2.7e-4,-5.291931 0,-7.9375 -1.76344,0.881592 -3.52751,1.763624 -5.29166,2.645833 z"
       transform="translate(-2.6460513,3.9689888)" />
    <path
       style="fill:none;stroke:#000000;stroke-width:0.26458332px;stroke-linecap:butt;stroke-linejoin:miter;stroke-opacity:1"
       d="m 117.29872,59.095384 c -1.32306,-1.102533 -1.76404,-3.307393 -0.66158,-4.409721 1.10246,-1.102329 3.74854,-1.102329 5.07132,-1.43e-4 1.32279,1.102187 1.32279,3.30727 0.22036,4.409833 -1.10243,1.102564 -3.30703,1.102564 -4.6301,3.1e-5 z"
       id="path2442"
       inkscape:connector-curvature="0"
       inkscape:path-effect="#path-effect2444"
       inkscape:original-d="m 116.41667,60.197917 c -0.44071,-2.205127 -0.88168,-4.409987 -1.32292,-6.614583 2.64585,-2.65e-4 5.29193,-2.65e-4 7.9375,0 2.6e-4,2.204373 2.6e-4,4.409456 0,6.614583 -2.20486,-2.64e-4 -4.40946,-2.64e-4 -6.61458,0 z"
       transform="translate(0.44086051,1.1025327)" />
    <path
       style="fill:#ffff00;fill-opacity:0.30882353;stroke:#d3d3d3;stroke-width:0.35770527;stroke-miterlimit:4;stroke-dasharray:none;stroke-dashoffset:0;stroke-opacity:1"
       d="m 72.44634,331.75053 c -2.431243,-1.26188 -4.08271,-3.81972 -4.630007,-7.1711 -0.586506,-3.59146 1.541105,-10.98496 5.534553,-19.23269 3.659112,-7.55722 7.133777,-13.27566 19.639297,-32.32143 9.845977,-14.99531 12.086877,-18.50113 16.664717,-26.07143 16.26168,-26.89167 24.92618,-48.37077 27.44506,-68.03571 0.70666,-5.5169 0.70826,-17.10307 0.003,-23.07673 -1.49256,-12.64554 -5.17746,-25.81693 -11.37897,-40.67327 -2.1874,-5.24015 -3.60355,-8.32737 -11.22204,-24.464285 -5.66036,-11.989328 -7.59153,-17.841693 -7.59153,-23.005834 0,-4.991222 2.04953,-7.314588 6.84775,-7.762653 8.02204,-0.749109 15.12712,4.677164 24.38815,18.625629 1.82585,2.75 6.97886,11.267858 11.45113,18.928572 14.06369,24.090171 18.0926,30.236201 23.19931,35.390151 3.93494,3.97135 6.01235,4.96699 10.36366,4.96699 2.67642,0 3.50746,-0.1443 4.96633,-0.86236 2.42698,-1.19455 6.33708,-4.98996 8.46667,-8.21833 0.98141,-1.48776 5.7051,-10.49967 10.4971,-20.02645 9.73541,-19.354572 12.3931,-24.274222 15.91717,-29.464287 5.24175,-7.719775 9.91135,-11.221472 15.74713,-11.808651 2.60375,-0.261981 8.33881,0.59682 11.25284,1.685063 2.18403,0.815625 4.18671,2.859053 4.73414,4.830453 2.27405,8.189334 -5.12141,26.383352 -22.76575,56.007422 -20.75739,34.85074 -54.90798,85.45435 -86.64782,128.39286 -37.31243,50.47725 -59.569695,73.94017 -70.127641,73.92637 -0.925667,-10e-4 -2.165173,-0.25245 -2.754459,-0.5583 z"
       id="path2446"
       inkscape:connector-curvature="0"
       transform="scale(0.26458333)" />
    <path
       style="fill:#ffff00;fill-opacity:0.30882353;stroke:#d3d3d3;stroke-width:0.35770527;stroke-miterlimit:4;stroke-dasharray:none;stroke-dashoffset:0;stroke-opacity:1"
       d="m 294.06281,226.53041 c -0.68237,-0.46332 -2.09979,-1.95494 -3.14983,-3.31469 -4.33936,-5.6193 -6.26969,-5.83485 -19.05059,-2.12724 -13.62615,3.95282 -19.38966,4.76463 -25.31121,3.56521 -10.07579,-2.04087 -16.38876,-8.38857 -19.34363,-19.45004 -1.05069,-3.93322 -1.3083,-14.67512 -0.49243,-20.5333 1.99031,-14.29097 7.05073,-24.48635 13.83935,-27.88255 3.91304,-1.95762 7.13308,-1.63536 9.86959,0.98776 3.23684,3.1027 3.6777,5.83013 3.59062,22.21404 -0.0712,13.39728 0.0493,14.8077 1.51679,17.74717 2.25384,4.51468 7.62469,4.28144 11.40032,-0.49509 3.03933,-3.84505 4.22147,-6.49632 8.72734,-19.57351 3.68391,-10.69167 5.254,-14.45337 7.27452,-17.42872 3.3184,-4.88656 6.73505,-5.80774 10.70698,-2.88676 7.73272,5.68672 16.82445,31.07813 17.44065,48.70834 0.28475,8.14725 -1.00663,12.80551 -4.67514,16.86408 -3.40302,3.76485 -9.48993,5.54275 -12.34333,3.6053 z"
       id="path2448"
       inkscape:connector-curvature="0"
       transform="scale(0.26458333)" />
    <path
       style="fill:#ffff00;fill-opacity:0.30882353;stroke:#d3d3d3;stroke-width:0.35770527;stroke-miterlimit:4;stroke-dasharray:none;stroke-dashoffset:0;stroke-opacity:1"
       d="m 338.46985,237.69724 c -4.07937,-2.48748 -6.01157,-10.18853 -6.90704,-27.52907 -1.011,-19.5777 0.35531,-38.51707 3.41122,-47.28509 3.655,-10.48694 10.3592,-10.75305 22.95074,-0.91099 1.89758,1.48322 5.00398,3.91587 6.90312,5.40589 4.21543,3.30732 6.71386,4.57781 9.49894,4.83035 2.90246,0.26318 5.20581,-0.47256 12.07578,-3.85728 9.21278,-4.53899 13.13964,-5.16117 17.87161,-2.83163 5.34012,2.62894 10.33298,10.9169 14.75285,24.4892 5.4431,16.71438 7.13705,31.08763 4.31102,36.57934 -1.32011,2.56534 -3.96168,4.2945 -6.56054,4.2945 -3.55328,0 -6.19462,-3.45764 -13.50491,-17.67858 -5.31442,-10.33832 -7.0447,-13.16608 -8.65824,-14.15002 -1.39477,-0.85054 -1.49263,-0.84359 -2.5149,0.17868 -1.1669,1.1669 -1.78812,3.47955 -3.2253,12.00706 -1.48263,8.79718 -2.38543,12.22275 -3.87711,14.71117 -2.98651,4.98212 -7.31746,4.58688 -11.03197,-1.00679 -3.00976,-4.53237 -4.84293,-9.83504 -9.1897,-26.58229 -2.7884,-10.74314 -3.93918,-14.41159 -5.2229,-16.64954 -0.96603,-1.68412 -2.42786,-2.97255 -3.3726,-2.97255 -0.97811,0 -2.35013,1.89795 -2.88938,3.99697 -0.72654,2.82808 -0.55231,11.37052 0.41746,20.46731 1.09524,10.27383 1.19348,21.01388 0.22376,24.46429 -1.32128,4.70135 -3.82261,7.90913 -7.55685,9.69114 -2.67696,1.27746 -6.1227,1.42476 -7.90506,0.33793 z"
       id="path2450"
       inkscape:connector-curvature="0"
       transform="scale(0.26458333)" />
    <path
       style="fill:#ffff00;fill-opacity:0.30882353;stroke:#d3d3d3;stroke-width:0.35770527;stroke-miterlimit:4;stroke-dasharray:none;stroke-dashoffset:0;stroke-opacity:1"
       d="m 449.4169,229.14599 c -3.5545,-1.22819 -5.78464,-3.33612 -7.52873,-7.11615 -1.32632,-2.87457 -1.35971,-6.70499 -0.0784,-8.98867 2.14984,-3.83153 8.26862,-5.62873 14.043,-4.1247 5.88603,1.53312 8.89537,5.16214 8.87365,10.70092 -0.0182,4.65052 -2.42734,8.27989 -6.39294,9.6311 -2.23182,0.76046 -6.56324,0.71067 -8.91663,-0.1025 z"
       id="path2452"
       inkscape:connector-curvature="0"
       transform="scale(0.26458333)" />
    <path
       style="fill:#ffff00;fill-opacity:0.30882353;stroke:#d3d3d3;stroke-width:0.35770527;stroke-miterlimit:4;stroke-dasharray:none;stroke-dashoffset:0;stroke-opacity:1"
       d="m 457.80453,201.50746 c -0.62937,-1.10184 -0.5117,-6.38599 0.2366,-10.625 4.21027,-23.85072 27.1594,-84.8331 41.73165,-110.892861 4.73945,-8.47564 10.14631,-15.047569 13.11061,-15.935696 3.10083,-0.929029 4.7257,1.198435 4.9372,6.464351 0.36706,9.138561 -5.49671,27.760721 -17.71427,56.257056 -15.70977,36.64159 -31.66091,66.94925 -38.76817,73.66072 -2.19115,2.06913 -2.84969,2.2688 -3.53362,1.07143 z"
       id="path2454"
       inkscape:connector-curvature="0"
       transform="scale(0.26458333)" />
  </g>
</svg>
